<svg version="1.1" id="Layer_1" xmlns="http://www.w3.org/2000/svg" xmlns:xlink="http://www.w3.org/1999/xlink" x="0px" y="0px" enable-background="new 0 0 976 976" xml:space="preserve" viewBox="118.18 45.88 652.43 911.3" transform="matrix(-1,0,0,1,0,0)">
<path fill="#000000" opacity="1.000000" stroke="none" d=" M330.030609,429.639557   C332.316528,431.093079 334.330933,432.289551 336.165588,433.717041   C342.303009,438.492218 342.270447,438.511719 348.978821,434.109924   C355.105225,430.090027 361.277954,426.139923 367.369812,422.068573   C368.864136,421.069855 370.471924,420.075714 371.541077,417.757812   C363.986237,411.036316 361.255829,401.249908 356.764099,392.410492   C352.126648,383.284302 345.427765,375.520752 338.283539,368.279877   C328.591705,358.457031 321.827637,346.948059 317.408844,334.012543   C314.890930,326.641541 310.435974,320.415070 306.471924,313.868774   C304.928711,311.320282 301.834198,308.109528 305.168701,305.524384   C308.365601,303.045929 310.947266,306.653259 313.191956,308.649994   C316.475800,311.571045 317.406158,315.773438 318.127930,319.877777   C318.896881,324.250641 320.428528,328.316589 323.163422,331.703979   C335.425629,346.891754 345.153198,363.876251 357.099701,379.279785   C357.803589,380.187317 358.590363,381.030548 359.513153,382.107483   C362.583069,380.276184 362.722473,377.089111 363.496368,374.371307   C364.487701,370.889740 365.878326,367.772736 369.132660,365.895660   C370.776581,364.947449 372.579651,364.417175 374.212341,365.973785   C375.777771,367.466278 375.606567,369.327576 374.844849,371.063782   C373.600861,373.899323 371.064972,375.669342 368.902893,377.729248   C362.928467,383.421173 362.368866,386.786346 366.265350,394.033417   C369.333344,399.739594 372.888306,405.199524 374.658112,411.543854   C375.429108,414.307617 377.318329,415.237244 380.058350,414.024200   C382.799011,412.810822 385.563324,411.648499 388.280182,410.384033   C393.541473,407.935272 398.650146,408.272858 403.558105,411.248871   C410.821869,415.653290 418.067139,420.090302 425.254822,424.617371   C430.185059,427.722595 433.672546,432.156097 436.128204,437.387817   C438.868225,443.225433 443.088318,447.496490 449.061157,449.977295   C467.902924,457.803192 485.772705,467.366364 502.207245,479.528992   C503.801025,480.708527 505.660248,481.537659 507.427185,482.470917   C508.134003,482.844299 508.924561,483.059113 510.223145,483.554382   C507.142151,471.717499 502.364594,461.255676 496.110046,451.409149   C479.567200,425.365906 464.058685,398.805298 452.635284,369.982849   C445.398163,351.722931 436.083984,334.388977 426.405731,317.305145   C420.989655,307.744751 414.887054,298.575958 409.298157,289.110046   C404.228424,280.523499 398.684814,272.163940 395.344391,261.266846   C392.703308,267.558868 390.421234,272.747192 388.333740,278.012695   C380.305359,298.263763 364.795746,306.052765 343.599213,300.336761   C331.554108,297.088593 319.311035,294.407043 308.229614,288.310272   C305.594421,286.860443 303.102203,285.264191 300.905731,283.153961   C295.875183,278.321014 294.851013,278.306244 288.317993,282.368988   C289.132996,284.518188 291.261658,285.382660 292.795746,286.782715   C295.477997,289.230560 297.379303,292.170563 298.074982,295.651978   C298.697266,298.766113 298.884064,302.148682 295.682068,304.223724   C292.081268,306.557129 290.387024,303.073395 287.697845,301.006348   C287.245392,306.773315 286.551727,312.121033 285.228546,317.366638   C283.163208,325.554596 279.583862,333.018890 274.700684,339.866516   C270.985535,345.076202 266.078583,348.766632 259.771179,350.056854   C251.256165,351.798676 243.739578,355.371887 236.959702,360.799713   C232.665359,364.237701 230.179260,363.575592 228.157715,358.548187   C221.390472,341.718567 219.295395,324.882446 227.812241,307.830383   C232.999115,297.445404 240.437042,289.956604 251.761780,286.714417   C255.763458,285.568817 259.792725,284.519562 263.794891,283.375580   C271.261292,281.241364 274.123840,278.065338 274.652374,270.362030   C275.382233,259.724823 274.049072,249.037048 275.206085,238.394531   C275.429626,236.338150 274.126404,235.412186 272.395447,234.839600   C270.657440,234.264709 268.650177,234.030533 267.246674,232.991104   C253.178848,222.572235 239.505829,228.818329 225.723373,233.690445   C215.875336,237.171707 208.695816,243.182434 204.002350,252.816513   C200.302917,260.410217 195.117508,267.279297 190.602859,274.476959   C188.878403,277.226257 186.840897,279.776093 183.519623,280.398041   C177.660599,281.495209 174.470093,285.581482 171.560608,290.190643   C167.172363,297.142395 165.529266,304.969360 164.558929,312.913452   C163.875015,318.512848 160.435364,323.009338 159.213547,328.399597   C158.498642,331.553467 155.498840,331.641083 153.767807,328.772430   C152.664032,326.943268 151.904327,324.852753 151.294724,322.789459   C149.632416,317.163116 145.641968,314.437317 140.174789,313.285614   C136.269806,312.463043 132.311905,311.741333 128.532745,310.501740   C119.625000,307.579865 115.971916,298.304260 119.564903,288.338623   C122.946510,278.959290 130.816742,274.901031 139.769730,278.457031   C149.722778,282.410309 159.311874,287.018921 161.163681,299.746796   C162.619476,295.799805 164.059113,291.846771 165.535233,287.907410   C167.360794,283.035400 170.388062,279.363403 175.239700,277.042755   C180.214874,274.663055 182.827957,269.661896 186.434387,265.783173   C193.709167,257.959229 200.546112,249.797134 204.356628,239.233124   C199.293671,235.796814 193.630325,234.028000 187.659271,233.604675   C179.726883,233.042313 174.355865,228.798050 170.298615,222.475449   C165.519165,215.027405 163.387833,206.790512 162.588120,197.975006   C161.543442,186.459076 162.531509,175.009491 162.876877,163.542877   C163.155975,154.276199 161.650452,145.322296 159.444534,136.415421   C159.284821,135.770523 158.951859,135.151077 158.892471,134.502136   C158.723480,132.654999 158.523560,130.513367 160.878006,130.035339   C163.074860,129.589310 163.566422,131.699020 164.039917,133.212616   C167.250198,143.474609 168.738022,154.024765 168.257751,164.743713   C167.548004,180.584366 171.458847,195.424866 177.310196,209.901245   C178.368713,212.520035 179.882935,214.954590 180.942062,217.573181   C185.538391,228.937027 195.698975,230.354156 205.922607,231.648346   C208.150574,231.930344 209.114273,230.226471 210.031204,228.589630   C213.919250,221.648911 219.779602,218.038666 227.771988,217.388885   C237.461426,216.601166 247.043320,216.042633 256.314819,219.894592   C259.960876,221.409409 263.886505,220.668045 267.693024,220.867523   C272.304718,221.109161 276.747437,221.686295 278.983429,226.630493   C279.577545,227.944138 280.652191,228.831085 282.138092,228.648148   C287.627777,227.972305 293.126312,228.342514 296.965088,222.424194   C300.839752,216.450531 307.594482,213.077011 313.381195,208.360931   C305.628021,206.837173 298.064392,205.737122 290.924438,202.910690   C282.409424,199.539871 280.164551,195.768890 281.635223,186.750626   C282.984131,178.479309 285.383087,170.510498 289.288696,163.082352   C294.221893,153.699753 296.234619,143.768539 295.895447,133.208176   C295.687744,126.741005 295.218140,120.258217 296.642822,113.795868   C298.079773,107.277756 301.244812,102.463242 307.789917,100.264755   C309.840790,99.575867 311.832458,98.712181 313.877075,98.002991   C322.442810,95.031876 324.886505,95.694885 331.228912,102.995674   C332.689484,93.945427 338.609375,88.191193 344.710968,82.540291   C352.174561,75.627953 356.764954,67.385513 357.986633,57.019016   C359.500671,44.171913 362.886047,42.986740 373.132874,50.791653   C378.857697,55.152214 384.054840,60.026974 388.437866,65.777328   C394.997070,74.382744 403.257172,81.063911 412.574615,86.459427   C420.591675,91.101913 429.353485,94.726692 434.227600,103.422325   C435.080200,102.812065 435.654205,102.618980 435.838837,102.237473   C441.813019,89.891151 453.317169,83.897430 464.327240,77.308083   C469.217194,74.381500 474.014954,74.283836 478.986786,77.070435   C485.512115,80.727730 490.814972,85.697273 495.022522,91.828224   C499.384705,98.184563 504.991211,102.695312 512.223145,105.691711   C523.413879,110.328323 533.424072,116.906311 541.182312,126.457466   C547.067871,133.703186 549.667603,141.746429 547.446655,151.130798   C546.215942,156.330917 543.313232,159.740616 538.263367,161.329498   C526.460815,165.043045 514.282776,166.810638 502.042633,168.228760   C488.256989,169.825928 475.176697,173.012192 464.882446,183.330444   C461.476959,186.743851 457.270050,189.238617 453.012482,191.590744   C453.260895,194.007980 455.393585,194.304092 456.777496,195.262009   C462.940033,199.527496 469.385040,203.413605 475.334503,207.952530   C490.686096,219.664520 496.192719,235.958969 495.490662,254.554764   C495.146759,263.664398 493.496155,272.721100 492.535492,281.812134   C491.578186,290.870911 493.414795,299.717834 494.768127,308.596039   C494.968384,309.910004 495.143036,311.230011 495.265808,312.553162   C495.607086,316.230377 493.947266,317.907349 490.262329,317.348206   C484.508484,316.475128 478.748322,315.627289 473.021362,314.598816   C468.838196,313.847565 465.969543,313.934753 466.057953,319.628387   C466.135773,324.638550 464.295227,329.462952 461.881500,333.894226   C453.698883,348.916565 455.511139,363.002594 464.516418,377.224884   C475.294098,394.246368 488.595551,409.543793 498.181305,427.361328   C502.101013,434.647156 505.275787,442.354309 510.564514,450.080139   C510.564514,441.866669 510.671051,434.625275 510.539825,427.388153   C510.337463,416.229553 509.806244,405.074921 509.736053,393.916626   C509.691559,386.836487 507.119385,381.341125 501.286926,377.335358   C496.595490,374.113312 492.410736,370.295258 488.535522,366.143860   C485.611237,363.011139 483.697388,359.425781 483.664581,354.978577   C483.635712,351.068787 484.588776,347.559082 488.166656,345.581512   C491.527405,343.723938 494.933777,344.457764 498.076874,346.527039   C498.898499,347.067932 499.753296,347.558441 500.631134,348.095520   C502.417206,346.592163 501.729340,344.582092 501.945679,342.899689   C503.401031,331.581421 508.480865,321.894653 515.824951,313.495972   C521.780579,306.685089 525.952637,299.106415 528.537537,290.539948   C529.106628,288.653900 529.296082,286.236908 531.884338,286.224854   C534.306763,286.213531 535.005188,288.446655 535.659668,290.327911   C540.483765,304.194702 544.757935,318.120300 544.397278,333.115204   C544.123535,344.494293 540.818542,354.347717 532.475403,362.296356   C531.901428,362.843140 531.456665,363.525574 530.945312,364.152893   C537.503906,369.090576 537.884094,372.542938 532.567749,378.932678   C530.869568,380.973785 528.786072,382.689575 526.997437,384.661743   C525.666321,386.129456 523.927246,387.591156 523.397034,389.362915   C519.673889,401.804535 515.775513,414.277130 520.416504,427.411011   C523.841553,437.103607 525.335815,447.329041 524.907959,457.384949   C524.074097,476.983490 528.802856,494.836548 537.721741,512.087463   C546.734131,529.519104 551.263489,548.152893 550.261780,567.967102   C549.952942,574.074585 550.491516,580.171021 552.570740,586.657349   C555.646606,579.100037 556.743530,571.670959 557.431030,564.295837   C558.947876,548.024414 563.014282,532.193970 565.220215,516.043884   C566.417175,507.280975 566.594604,498.473663 567.493286,489.706329   C568.559143,479.309052 571.359009,469.451172 575.717041,460.025238   C580.202454,450.323822 583.621948,440.244110 586.890015,430.096497   C587.318787,428.765320 587.816406,427.441467 586.621887,426.397552   C582.177429,422.513000 583.691162,417.577545 584.176086,412.860657   C585.756348,397.487488 588.931458,382.273590 588.659424,366.712738   C588.608887,363.818573 588.399963,361.278717 586.256531,358.912354   C584.066345,356.494446 583.819031,353.159302 583.758606,349.948395   C583.504089,336.416992 578.143494,325.033478 568.740417,315.582886   C559.489563,306.285339 554.616394,295.591644 554.396179,282.187988   C554.256897,273.711578 554.734863,265.676880 557.623779,257.724487   C559.319885,253.055695 559.155396,248.375137 557.376038,243.574692   C554.017273,234.513184 556.733887,225.402496 558.221619,216.477356   C560.340088,203.768814 564.183289,191.584091 571.794739,180.834488   C575.397339,175.746597 577.033508,169.745071 578.249817,163.647415   C579.196411,158.901413 580.715759,154.311584 582.728943,149.901291   C583.939819,147.248566 585.393311,144.599747 588.813416,144.891861   C592.247681,145.185196 593.445923,148.004578 593.870483,150.886978   C596.395752,168.032013 596.679688,184.827713 585.445251,199.610275   C580.655518,205.912674 577.266357,212.922638 574.805420,220.425751   C574.239746,222.150406 573.599548,224.041473 572.423401,225.339020   C568.970703,229.148026 567.893494,233.661270 567.654663,238.566025   C567.235168,247.180557 566.769714,255.792847 566.307556,264.715027   C569.672180,264.681763 571.499939,262.209381 573.909363,261.014038   C577.217285,259.372986 580.456787,257.406250 584.236755,259.573029   C585.646179,260.380981 586.378479,261.789703 586.035217,263.398438   C585.132080,267.630707 581.692322,269.327728 578.086670,270.080261   C562.299255,273.375366 564.600769,278.903595 564.483032,290.399170   C564.377014,300.749481 569.198792,308.281097 577.226807,313.943817   C584.742554,319.245270 587.545410,326.759827 588.272766,335.348511   C588.576782,338.938751 589.481812,342.081238 592.322937,345.687805   C593.791199,339.953979 595.067078,335.043701 596.303833,330.123535   C597.804810,324.152557 599.009338,318.092072 600.819702,312.217529   C603.231018,304.393219 603.216553,296.843201 599.762512,289.358917   C598.900452,287.490997 598.936707,285.622070 599.356201,283.540924   C600.076294,279.968536 600.428467,276.300385 600.656067,272.655060   C601.082031,265.831604 604.163391,260.243805 608.410828,255.162064   C613.701843,248.831711 619.864014,243.556519 627.233337,239.744461   C634.070496,236.207657 640.220520,231.670166 646.261780,226.917572   C653.247681,221.421829 656.727112,222.778915 658.735657,231.376450   C660.598450,239.350113 656.674194,248.782791 648.708862,253.607498   C638.924622,259.533966 631.320068,267.474396 625.054016,276.886230   C622.163940,281.227142 618.622620,285.052551 614.321472,287.945465   C610.423828,290.566956 608.762390,293.481750 609.647827,298.372437   C610.882446,305.192108 609.023071,311.941254 607.811462,318.647186   C607.514160,320.292786 607.150574,321.872986 607.664001,324.311249   C613.139954,320.797424 619.010010,319.247742 624.806946,317.477631   C627.253601,316.730499 629.673279,316.237579 632.117188,317.293335   C633.725525,317.988098 634.996460,319.093475 634.952026,321.025848   C634.907166,322.974274 633.633972,323.970978 631.890930,324.487122   C631.731140,324.534485 631.574158,324.601105 631.410889,324.625519   C614.010864,327.228882 608.483154,340.872345 604.075195,354.945923   C602.540161,359.846741 599.566895,364.135468 598.965942,369.449890   C598.028381,377.740417 598.575562,386.070679 597.550720,394.368469   C596.592407,402.127747 595.724731,409.894928 594.485779,417.617432   C594.303101,418.756042 594.120605,419.926697 595.082825,421.474762   C601.664551,419.294067 607.040283,415.118561 611.735352,410.289337   C618.995117,402.822174 626.887512,396.331268 635.903503,391.083435   C643.248535,386.808228 647.423706,379.993835 648.749268,371.722717   C651.823730,352.539215 660.342834,336.099976 673.091431,321.654297   C676.929810,317.304901 681.372742,313.988831 687.052307,312.454651   C689.451965,311.806427 691.796387,311.692749 693.554749,313.634064   C695.526794,315.811279 694.176086,317.984589 693.039246,320.060059   C690.880859,324.000397 688.637695,327.898895 686.630798,331.915253   C685.942017,333.293762 684.771729,334.783417 686.005066,337.125671   C696.205566,329.649780 707.983765,329.488220 719.880432,329.657104   C723.939514,329.714722 727.638428,327.911743 731.322388,326.344757   C732.697998,325.759644 734.041077,325.025055 735.475891,324.666595   C738.759460,323.846313 741.656433,324.701996 742.938843,327.975739   C744.271057,331.376801 742.058472,333.222748 739.141479,334.415741   C735.567993,335.877289 732.033081,337.395721 730.792847,341.502747   C731.423523,343.048492 732.737122,342.722809 733.835327,342.840271   C738.149780,343.301697 742.169861,344.804535 744.755920,348.247742   C749.745361,354.890839 756.442993,358.187256 764.235779,360.367249   C770.876953,362.225098 772.551453,368.177673 768.100403,374.902222   C762.274414,383.704010 755.126709,391.393372 745.542053,396.378479   C744.367249,396.989532 743.174622,397.566284 741.215515,398.546661   C745.149109,400.052643 748.409790,399.842773 751.753540,399.113770   C755.807373,398.229980 759.853333,396.980682 764.063110,398.247223   C769.528992,399.891632 770.657349,403.741577 766.840088,407.973419   C763.174438,412.037079 758.459167,414.359070 753.399414,416.304749   C742.490173,420.499725 731.637878,424.901520 724.173401,434.633179   C723.683716,435.271576 723.269592,435.967926 722.861755,436.575623   C723.158081,437.033081 723.288574,437.491516 723.512146,437.542725   C733.534546,439.836304 731.811584,449.673981 725.086121,454.523499   C718.299561,459.417114 709.552673,462.938324 701.742920,463.665710   C701.330811,473.354767 689.486328,480.979767 678.476257,481.181580   C671.841736,481.303162 665.203125,481.203888 658.290527,482.087799   C659.353088,482.603729 660.381348,483.212555 661.484070,483.620117   C667.575073,485.871613 673.669739,488.115204 679.792419,490.278656   C683.881836,491.723694 686.343506,494.457520 687.637146,498.631348   C689.572510,504.875214 690.391968,511.302399 691.270386,517.721619   C691.931458,522.552917 693.005493,527.226685 695.407837,531.498962   C698.932007,537.766174 705.774170,540.493774 712.559570,538.462463   C715.151794,537.686401 716.169556,535.735229 716.652100,533.301086   C718.009277,526.454590 719.361816,519.607117 720.764343,512.769836   C722.959900,502.066223 731.620178,494.947601 741.553955,495.633392   C746.621521,495.983246 749.154602,499.979950 745.998901,503.817413   C738.923645,512.421326 734.760559,522.655884 728.972595,531.939941   C718.244446,549.148010 701.245483,549.457825 689.016541,533.273071   C683.720154,526.263428 679.849243,518.601624 678.364075,509.852814   C678.169250,508.704926 677.815735,507.583710 677.626282,506.435181   C676.111389,497.252289 671.003540,491.671478 661.535889,490.783539   C655.648132,490.231415 650.511475,486.816620 644.656433,486.474823   C631.255554,485.692474 618.898804,488.895752 607.865906,496.748627   C601.259888,501.450592 595.935669,507.410858 591.354309,513.999817   C586.791321,520.562317 582.575195,527.366028 578.209167,534.065430   C571.557251,544.272217 570.191528,556.177246 567.457153,567.637451   C566.456543,571.830750 565.616150,576.062378 564.703186,580.274231   C565.093018,580.376953 565.508850,580.586121 565.591919,580.494324   C577.471985,567.365784 592.915161,563.042725 609.901917,562.505127   C610.895081,562.473694 611.947998,562.546692 612.867371,562.246826   C620.900513,559.626831 625.788574,560.733459 630.599060,567.739685   C637.569580,577.891541 644.073975,588.371521 650.544067,598.855469   C653.870972,604.246277 657.437134,609.464172 660.885193,614.765991   C666.738281,623.765686 668.632141,634.144165 670.240723,644.544983   C671.751526,654.312866 674.401733,663.718323 678.803711,672.608948   C679.983643,674.991943 680.978394,677.481262 681.863770,679.990356   C682.484497,681.749390 682.810242,683.734253 680.752502,684.853638   C678.731628,685.952942 677.347961,684.692078 676.052979,683.225403   C661.981750,667.288086 649.851379,650.057678 642.935303,629.791809   C638.909546,617.995361 636.138123,605.773071 632.724915,593.764465   C631.079163,587.974060 628.958374,582.365540 625.205139,577.544312   C621.236694,572.446594 616.229187,570.127808 609.557739,570.658020   C600.900818,571.346008 592.407593,572.943176 583.866150,574.298889   C577.989868,575.231628 574.688416,579.119385 571.230286,583.809509   C562.040588,596.273376 559.375183,610.048523 559.559448,625.156494   C559.737854,639.786987 558.383545,654.419067 557.535950,669.046692   C556.504822,686.843445 553.562500,704.415649 552.515442,722.214417   C550.366577,758.743469 544.743652,795.099792 547.353333,831.849976   C548.830750,852.655396 547.425598,873.522034 548.523376,894.300232   C549.277527,908.574829 549.762573,922.889526 551.080444,937.137939   C551.531921,942.018250 550.912292,946.803650 550.012085,951.532715   C549.424194,954.621094 547.682129,957.239502 544.008423,957.161255   C540.378052,957.083923 539.297546,954.126648 538.890015,951.341003   C537.999634,945.254883 537.064026,939.112793 536.981140,932.982239   C536.647888,908.329773 531.958435,883.746338 534.055054,859.159790   C535.870667,837.867859 534.936340,816.557739 536.608887,795.321289   C537.211670,787.667847 534.026428,780.670593 533.208496,773.217468   C530.362793,747.287476 525.652832,721.623108 523.030518,695.597168   C521.095825,676.395325 524.186523,658.580566 528.187805,640.409302   C530.212341,631.215149 530.512512,621.909607 529.650574,612.582275   C528.976074,605.283081 525.897400,599.245300 519.724304,594.880981   C515.803711,592.109131 512.144409,588.967651 508.079712,585.764832   C505.733643,590.337036 505.480560,595.361206 504.801147,600.144958   C503.445435,609.690552 501.951141,619.461304 507.469238,628.338928   C512.758423,636.848328 504.794525,648.766418 494.472534,647.612854   C493.335358,647.485779 492.154755,647.169678 490.715393,648.220459   C490.474304,656.997864 484.588623,662.014160 477.442444,666.328552   C470.093933,670.765259 465.806946,677.583740 463.703735,685.841064   C463.058014,688.376038 462.913086,691.498047 459.533447,691.945068   C456.653473,692.325928 455.795563,689.661499 454.536072,687.750244   C451.756531,683.532227 447.805786,681.413208 442.776276,681.343750   C438.943756,681.290894 435.109619,681.354919 431.277069,681.303040   C415.119324,681.084045 409.030243,672.682800 411.151428,657.830994   C413.095306,644.220520 418.388153,631.732178 429.615967,622.347168   C436.159119,616.877991 437.166504,608.143372 439.574402,600.400269   C439.867859,599.456482 439.555115,598.379883 438.533783,597.804688   C437.279510,597.098206 436.292694,597.716187 435.409363,598.557983   C433.405334,600.467834 432.458679,602.998962 431.631989,605.520325   C429.536713,611.911072 426.136353,617.593872 422.742645,623.352722   C414.783875,636.858093 402.085205,642.013977 387.526276,644.095154   C382.694824,644.785706 378.823883,642.643433 375.326996,639.503906   C369.765839,634.510986 364.956543,628.663391 358.257629,624.955750   C354.929474,623.113708 351.988190,621.475647 348.098877,623.879822   C345.723083,625.348389 343.919464,623.999146 343.716034,621.147461   C343.525360,618.475098 343.695160,615.837402 344.671661,613.274841   C347.280487,606.428772 349.666107,599.493530 352.426819,592.710327   C359.118896,576.267578 367.384033,571.810669 384.900787,575.211975   C390.282288,576.257019 395.566620,577.802856 400.894379,579.123779   C404.492310,580.015869 408.154236,580.280701 411.806396,579.775879   C414.620636,579.386841 417.288971,578.484558 418.573029,575.628784   C417.487640,573.066956 415.312225,573.289551 413.375153,573.186707   C401.572845,572.560669 389.771912,571.875610 377.962250,571.430420   C366.530853,570.999451 360.491913,566.171692 357.709045,555.176025   C355.458191,546.282349 355.552155,537.351318 357.038910,528.427307   C357.770386,524.036743 357.756195,519.774170 356.455414,515.589783   C355.183746,511.499023 357.416840,510.230316 360.685028,510.329559   C364.154236,510.434875 367.618530,511.121399 371.058075,511.711090   C386.950653,514.435730 401.869537,512.274170 415.560883,503.271576   C417.607849,501.925598 420.041565,501.018799 422.420868,500.354919   C429.802948,498.294922 436.823792,501.916748 438.959869,509.255707   C439.779541,512.071899 441.168213,513.113953 443.708099,513.319031   C457.467865,514.430359 471.198944,516.307129 485.039795,514.000183   C489.473267,513.261292 493.984985,513.480347 498.431824,514.621704   C506.298096,516.640747 509.294983,520.863708 508.017761,528.893616   C506.964600,535.515137 503.710693,541.085327 499.156555,545.925232   C496.991058,548.226624 494.775330,550.480713 492.645081,552.691162   C513.210815,554.295105 523.440063,568.941162 531.166321,585.356812   C537.629517,599.088989 538.454956,614.193176 537.492493,629.377563   C536.007385,652.809265 534.075500,676.281311 535.491577,699.754395   C536.379456,714.473206 534.916382,729.467041 540.272644,743.973022   C540.736572,739.187866 541.602051,734.402466 541.599670,729.617554   C541.583008,696.962524 542.425415,664.309082 543.103455,631.676697   C543.642944,605.710938 540.339478,580.240723 538.033691,554.584900   C536.867432,541.607788 535.774170,528.746033 529.915527,516.783630   C525.651245,508.076599 520.288086,500.043671 515.259460,491.802246   C514.757751,490.980011 514.011414,489.969849 513.183228,489.734619   C500.658630,486.176636 491.271057,477.246704 480.484406,470.731659   C469.334167,463.997040 457.699646,458.249481 445.725677,453.165344   C439.528778,450.534119 437.833344,451.190125 434.641937,457.222992   C430.853729,464.384033 429.956116,464.891510 422.680328,463.985535   C418.018158,470.349731 418.018158,470.349731 411.064789,465.601685   C404.637360,461.212769 402.794189,461.336975 398.992828,468.261078   C393.299988,478.630432 384.595276,484.482666 373.434387,487.453156   C360.232758,490.966797 346.863098,493.670715 333.473969,496.318329   C323.011505,498.387177 312.981689,495.122101 302.782257,493.958649   C300.310944,493.676697 297.819397,493.340668 295.419495,492.713989   C290.841339,491.518463 289.895233,488.853119 292.566986,484.954559   C299.120514,475.391785 308.809479,472.287231 319.778931,471.746124   C328.824158,471.299927 337.415131,473.037903 345.310516,477.403503   C354.467773,482.466858 362.901642,482.169373 371.355194,475.693573   C377.056946,471.325775 382.737274,467.058319 387.431335,461.539246   C393.483246,454.423645 398.036774,453.399139 406.910095,456.624268   C413.118988,458.881012 414.630676,458.412994 418.093323,452.832458   C420.464844,449.010376 424.093597,448.535461 428.099243,448.603912   C429.836243,448.633606 432.112640,449.420319 433.140167,447.443787   C434.342010,445.131836 432.084961,443.772308 430.795746,442.453430   C424.624420,436.139832 418.345276,429.930542 412.050385,423.739166   C406.191498,417.976685 398.895203,419.426178 391.750702,419.635376   C376.958710,420.068481 365.470886,428.069031 354.766327,436.688477   C339.107727,449.296906 327.695801,447.532837 312.900299,437.855591   C308.783295,435.162750 304.573456,434.108398 299.915161,433.400848   C280.570740,430.462494 265.658295,418.222382 266.680389,396.765594   C267.207703,385.694977 264.302277,375.345001 260.478424,365.150269   C259.957916,363.762543 259.173553,362.259247 260.425110,360.938507   C261.756439,359.533539 263.283966,360.386749 264.550659,361.108673   C283.105682,371.684143 296.231323,386.644318 301.780640,407.619904   C302.771454,411.364990 302.290222,415.250916 302.278931,419.074341   C302.262054,424.795258 304.174377,427.001678 310.031586,426.755096   C316.788544,426.470703 323.327087,427.142609 330.030609,429.639557  M377.611053,287.107544   C385.221405,275.389801 391.241119,263.127228 390.891052,248.654907   C390.794434,244.659805 390.587280,240.653076 390.775604,236.667999   C391.366730,224.158859 395.424377,213.542496 407.371948,207.435516   C408.731476,206.740601 410.328491,206.127884 410.076050,203.936249   C409.427643,204.109680 409.077484,204.131882 408.809113,204.291534   C408.384033,204.544403 407.972778,204.849030 407.626221,205.201172   C402.257355,210.657059 396.142059,212.246674 389.013397,208.898529   C386.962555,207.935287 384.747375,208.125916 382.618927,208.488373   C372.175232,210.266907 361.732391,209.246872 351.256470,208.849365   C333.174194,208.163239 316.064240,210.597275 303.861115,226.212540   C303.153534,227.117966 302.245667,227.920731 301.294800,228.572647   C297.530426,231.153473 295.536346,234.875824 294.057739,239.055069   C290.537537,249.004654 289.162170,259.409882 287.419342,269.733978   C287.161469,271.261597 286.776031,273.076569 288.554169,274.568665   C291.843842,274.349152 295.494415,273.999817 298.042206,277.068756   C301.843384,281.647430 306.132629,284.770203 312.586670,283.946045   C314.180878,283.742523 316.033691,284.990021 317.668549,285.776459   C325.466492,289.527496 333.009979,293.835907 341.176605,296.777374   C346.303650,298.624023 351.441528,301.110321 357.084625,298.657013   C364.101410,295.606476 370.857849,292.071045 377.611053,287.107544  M517.753662,162.197205   C524.070496,160.795303 530.533752,160.052826 536.660034,157.788895   C539.895203,156.593369 541.867432,154.529587 542.727905,151.134537   C545.220764,141.299500 541.544067,133.564728 534.677490,126.907837   C526.885620,119.353828 517.394592,114.568848 507.466431,110.562195   C500.480377,107.742889 494.859192,103.335854 490.523438,97.129616   C486.493286,91.360786 481.649628,86.364685 475.511108,82.717094   C472.676300,81.032585 470.055939,80.968513 467.018951,82.321213   C451.951538,89.032272 441.700226,100.334785 435.448151,115.363205   C432.707458,121.951248 430.163177,128.813232 430.685303,136.052841   C431.581238,148.474686 433.603729,160.826874 433.278381,173.321838   C433.091400,180.501968 436.679230,184.509827 442.860779,187.494370   C448.099426,190.023666 451.848297,187.736176 455.699188,185.043427   C458.419067,183.141571 461.043976,181.056274 463.473785,178.797394   C468.199402,174.404251 473.633575,171.425583 479.736145,169.371704   C491.820618,165.304535 504.428619,164.219757 517.753662,162.197205  M490.682434,246.330566   C491.232300,232.774689 484.283081,222.802124 474.720062,214.473114   C465.425415,206.377838 455.177185,199.494553 444.540741,193.230408   C441.057495,191.179047 437.271881,190.216690 432.969238,189.682785   C431.881134,193.170197 430.839203,196.468155 429.822815,199.773972   C424.889526,215.819992 417.443024,230.975662 413.675659,247.474243   C410.470795,261.509338 410.248901,274.620483 420.680969,285.852203   C429.114014,294.931732 439.125275,301.818420 451.394226,304.469025   C462.430328,306.853302 473.621735,308.518219 484.744202,310.503052   C489.048431,311.271179 489.064301,308.596405 488.487183,305.683838   C487.189697,299.135529 486.655640,292.549438 486.594238,285.865845   C486.474396,272.816345 488.961884,260.073486 490.682434,246.330566  M303.115753,201.431656   C304.108612,201.535889 305.115845,201.566147 306.092224,201.755402   C321.132812,204.670670 335.183563,202.964584 347.832489,193.475647   C351.016876,191.086807 355.006500,189.998657 359.081055,189.715744   C360.740875,189.600479 362.606384,189.775116 362.782227,187.389496   C362.937714,185.279984 361.429047,184.641418 359.774048,184.006042   C354.651031,182.039246 349.410583,180.301849 344.843750,177.129898   C339.441193,173.377472 335.248993,168.680847 334.779388,161.821121   C334.153809,152.683868 335.812042,143.931503 340.267303,135.809326   C341.449402,133.654221 342.979431,131.629898 343.264618,128.664215   C336.118134,125.881348 333.062347,119.516228 330.487488,112.972412   C324.773010,98.449394 323.062164,99.409935 309.319183,104.786377   C304.662781,106.608032 302.320618,109.965714 301.248901,114.735039   C300.060730,120.022476 300.173431,125.330338 300.388123,130.637894   C300.871246,142.580917 298.153198,153.683731 292.590912,164.246414   C288.697815,171.639313 286.200439,179.607712 284.416229,187.765305   C283.499878,191.955017 284.578766,195.137222 289.003418,196.993332   C293.330292,198.808395 297.718292,200.254272 303.115753,201.431656  M401.026794,155.360168   C401.870453,154.512527 402.795624,153.794571 404.078308,153.933578   C410.660553,154.646957 417.864716,161.975372 418.375366,168.461685   C418.518341,170.277924 418.522858,172.158127 420.888916,173.070709   C423.729675,170.847839 424.603790,167.656799 424.504791,164.321182   C424.396820,160.681046 423.670166,157.062866 423.302399,153.426102   C422.363098,144.138077 417.211609,137.437805 410.141174,131.929123   C401.600433,125.274956 392.692719,119.145126 383.699585,113.114014   C377.287811,108.814056 370.274139,106.659439 362.812592,105.450226   C358.203735,104.703331 355.075592,106.379349 354.734009,111.150513   C353.997925,121.432793 349.868622,130.350922 344.713226,139.037140   C341.351898,144.700607 340.172455,151.220169 339.465515,157.662766   C338.344513,167.879333 356.104401,182.616180 366.040833,179.990997   C366.355469,179.907867 366.649933,179.719116 366.931213,179.543457   C370.594788,177.255829 374.517059,177.647644 378.549988,178.193130   C384.845001,179.044571 391.174072,179.643921 398.236969,180.433762   C396.995453,179.072388 396.333954,178.360870 395.687469,177.635956   C390.141296,171.417084 390.532257,165.756989 396.991699,160.692566   C398.648254,159.393799 399.482910,157.612167 401.026794,155.360168  M421.564423,561.931396   C423.838623,558.641785 425.596710,555.104980 426.546722,551.207764   C429.058777,540.902771 430.691925,530.395081 433.736969,520.209656   C434.254211,518.479675 434.563751,516.628906 434.606171,514.825378   C434.835388,505.084351 428.128387,500.899048 419.507233,505.391296   C412.888397,508.840179 406.568146,512.896057 399.007385,514.223083   C388.564911,516.055847 378.176422,515.900879 367.795868,513.867004   C364.996948,513.318604 361.818970,512.791870 362.563385,517.114502   C363.514832,522.639282 362.924561,528.015991 362.434479,533.481567   C361.807312,540.475525 362.439026,547.378418 364.319122,554.206665   C365.854645,559.783325 369.056427,562.953186 374.855957,564.045776   C380.964508,565.196594 387.123352,564.686462 393.242249,565.336548   C402.854828,566.357727 412.553040,566.436768 422.267273,567.989563   C421.955200,565.897278 421.711975,564.266479 421.564423,561.931396  M466.449158,617.084839   C460.555756,610.671509 453.057190,606.473206 446.109375,601.443542   C444.248230,603.964966 443.960175,606.329041 443.179016,608.505371   C440.709686,615.385010 439.094482,623.126099 432.580231,627.303040   C421.954865,634.115784 417.805542,644.487427 415.059296,655.841370   C412.313049,667.195068 415.607544,672.430969 426.900604,675.145142   C428.498535,675.529175 430.184479,675.661377 431.834259,675.696411   C441.631866,675.904785 452.059387,673.812805 459.110809,684.692566   C461.507996,673.414307 467.224030,666.032410 476.120758,660.978821   C477.980560,659.922424 479.699432,658.512756 481.237366,657.013672   C487.013062,651.383789 487.068268,645.150513 481.304993,639.583069   C478.159515,636.544434 475.482025,633.195312 473.220490,629.478821   C470.889709,625.648499 470.099579,621.000061 466.449158,617.084839  M361.711853,585.209717   C353.082184,593.618652 351.887970,605.104492 347.395721,616.264954   C354.277802,615.427429 358.689697,617.669617 363.104980,620.130554   C369.464294,623.675110 374.436096,628.813416 379.443726,633.919067   C381.253784,635.764526 383.281525,637.580688 385.825104,637.443359   C394.923004,636.952271 404.163757,635.190247 410.809296,628.942200   C417.663116,622.498230 422.834625,614.311157 425.639221,604.986450   C426.305725,602.770569 427.081299,600.524841 428.213135,598.522583   C432.581116,590.795837 431.510559,580.443970 425.500183,573.988403   C423.995911,581.349548 416.819733,586.148743 408.792694,585.656128   C401.384399,585.201477 394.564209,582.415771 387.428070,580.951782   C378.668030,579.154724 369.619080,576.732788 361.711853,585.209717  M396.363678,82.173790   C388.947083,76.128372 383.794220,67.959549 376.906769,61.423393   C373.336853,58.035542 369.914276,54.403725 365.366394,52.569805   C363.764404,53.577145 363.462982,54.852215 363.303131,56.199104   C361.729126,69.458138 355.034088,79.631348 345.263763,88.534172   C332.194916,100.442635 333.308685,107.016563 345.640411,116.755142   C346.121307,117.134895 346.684174,117.410789 347.467224,117.894768   C347.880310,116.451508 348.393250,115.364441 348.481812,114.243843   C349.722809,98.543457 355.974945,98.517464 368.745392,101.862488   C369.387909,102.030785 370.026886,102.243050 370.634277,102.510422   C388.973816,110.582855 404.539673,122.661308 419.137482,136.131821   C420.297699,137.202438 420.806244,139.083633 423.424530,139.099533   C423.843292,136.971207 424.308014,134.749847 424.714142,132.517822   C425.752563,126.811012 425.902832,120.932037 428.304962,115.495720   C431.858795,107.453011 430.608887,103.701828 423.129639,99.013016   C414.396545,93.538177 404.771393,89.490936 396.363678,82.173790  M501.643494,602.264038   C501.721771,596.557068 503.188782,591.068787 504.281555,585.521729   C505.487823,579.398560 501.312714,565.781982 497.094513,564.154663   C489.254974,561.130432 486.053101,568.172241 481.504517,572.148560   C481.254181,572.367432 481.038605,572.625671 480.792084,572.849365   C474.456116,578.599243 470.009247,586.544617 460.689301,589.511902   C467.491730,596.614136 470.696289,605.059387 473.859619,613.719421   C477.291473,623.114563 482.198547,631.912170 490.360992,638.292969   C493.370636,640.645691 496.748627,642.493347 500.325500,639.649658   C503.765045,636.915161 503.484528,633.235962 501.646027,629.678955   C499.808685,626.124329 499.355927,622.372681 499.739441,618.513123   C500.248749,613.388123 500.969543,608.284058 501.643494,602.264038  M721.743408,429.216095   C730.461914,422.301147 740.803894,418.417267 750.787170,413.934753   C755.660400,411.746674 759.548218,408.902771 762.095764,404.337036   C761.120911,403.099670 759.992065,403.250122 759.125366,403.498749   C748.302734,406.602875 737.700745,404.796967 727.092468,402.282684   C717.296570,399.960938 705.990784,401.943695 699.011719,391.470276   C696.151611,395.696106 695.331543,400.465759 690.979980,402.754883   C686.697205,405.007904 681.804260,402.113373 677.484070,404.152679   C677.875000,407.042969 679.552856,408.781708 680.886658,410.626160   C684.243408,415.268066 687.148438,420.198029 688.200500,425.809998   C689.391479,432.162903 692.588745,435.238007 699.178406,435.471039   C707.190613,435.754395 715.329651,437.239777 721.743408,429.216095  M714.237549,391.415375   C731.734802,397.371979 754.007629,388.609161 762.402344,372.389648   C763.148010,370.949036 763.499939,369.262634 763.805176,367.647034   C764.164001,365.747345 763.277405,364.229706 761.410461,363.842865   C752.879944,362.075165 747.083740,356.697052 741.935242,350.054932   C738.503723,345.627899 728.805298,345.822540 725.554565,350.418732   C720.239136,357.933960 713.846191,364.443512 707.722717,371.234772   C700.450806,379.299927 701.695801,385.217407 711.256775,390.068970   C711.997375,390.444794 712.767151,390.763275 714.237549,391.415375  M674.136963,424.253448   C665.177795,423.681885 656.188660,424.418579 647.225891,423.468079   C642.368591,422.952942 638.156311,424.777618 634.530457,428.150391   C628.190552,434.047791 623.834412,441.247772 620.372070,449.062622   C619.931458,450.056976 619.200317,451.176605 620.628479,452.688599   C629.183960,452.170715 638.067078,453.202911 647.055115,452.360962   C663.412354,450.828735 679.821838,449.633148 696.236267,449.050507   C702.240234,448.837372 705.142944,445.420074 709.110840,441.827972   C704.105957,441.077881 699.864807,440.141449 695.581543,439.870026   C688.976135,439.451508 685.091553,436.084015 683.733643,429.817139   C682.661133,424.867096 680.185608,422.591766 674.136963,424.253448  M567.592224,535.028503   C566.681274,539.152405 565.925293,543.293335 566.329285,547.591980   C568.074646,541.393311 569.024902,534.995300 570.890625,528.876404   C579.400085,500.969330 596.957336,482.185699 626.527405,477.543182   C639.731995,475.470062 653.344177,475.369110 666.747559,475.010620   C676.507019,474.749634 684.909790,473.975861 690.538940,464.935638   C691.419922,463.520813 693.273926,462.711853 694.988098,461.382202   C688.589722,456.729065 681.736877,455.157501 674.483887,456.861908   C665.160156,459.052887 655.844360,459.979034 646.295715,459.187500   C639.836670,458.652069 633.346985,458.412201 626.865723,458.243500   C622.107178,458.119568 617.921875,459.688263 615.312744,463.914886   C607.625061,476.368347 597.023315,485.776215 584.912048,493.728790   C577.906067,498.329163 573.721375,504.989868 572.040405,513.189209   C570.604431,520.193787 569.242065,527.213440 567.592224,535.028503  M237.362411,337.823395   C237.562881,342.422363 235.294128,346.900177 236.464386,351.506927   C238.639328,352.346771 240.226303,351.227051 241.857742,350.514130   C254.503174,344.988220 263.966125,335.815796 271.073669,324.222626   C275.686951,316.697815 279.483124,308.700073 281.372559,299.984283   C283.648621,289.484802 278.177307,284.603455 268.037598,287.525208   C257.908417,290.443848 251.187714,297.070099 246.115280,305.910950   C240.590546,315.540131 239.377335,326.331848 237.362411,337.823395  M519.626038,315.111786   C503.640198,330.340942 504.850220,358.694519 513.557922,377.859314   C514.594788,371.029694 518.276489,365.914093 523.806091,361.977081   C530.195129,357.428131 535.725464,351.994995 537.446777,344.110870   C540.949768,328.066193 538.556458,312.562317 532.033752,296.561890   C529.624084,304.369507 524.439087,309.178101 519.626038,315.111786  M657.684326,356.156372   C656.992432,358.893372 656.219543,361.612854 655.624023,364.370667   C653.886597,372.415894 653.921448,372.409119 660.998230,376.353088   C662.008911,376.916351 663.000977,377.576141 663.847839,378.357880   C666.101990,380.438690 668.730286,381.104706 671.687561,380.657257   C678.100464,379.687134 684.531067,378.905396 691.029053,378.930664   C694.078857,378.942505 694.981445,377.414185 694.925476,374.520264   C694.841003,370.150543 692.034912,367.538513 689.179565,365.025421   C682.776184,359.389557 679.682312,352.456573 679.867981,343.898438   C680.030640,336.402679 681.838989,329.479340 685.762878,323.066376   C686.839172,321.307281 688.621460,319.788788 688.404907,316.871460   C684.498047,317.374878 681.421082,319.168884 678.947632,321.873810   C669.908630,331.758759 662.245361,342.532562 657.684326,356.156372  M437.779724,540.025818   C436.866608,542.695801 435.898529,545.348511 435.052948,548.039734   C433.720337,552.281006 433.601044,556.320862 437.329926,560.076660   C437.718719,558.998840 437.994049,558.398682 438.153656,557.769226   C441.984039,542.663025 444.528137,540.035522 459.771362,539.765381   C475.580566,539.485107 487.495911,532.257568 497.820770,520.700439   C494.848053,520.107544 491.924835,519.977722 489.017181,520.135193   C483.375092,520.440918 477.739929,520.884094 472.105194,521.313721   C463.391144,521.978027 454.895752,519.908020 446.286011,519.269714   C443.003387,519.026428 441.566650,520.121094 441.130585,523.603027   C440.471802,528.862976 439.104065,534.034180 437.779724,540.025818  M588.275818,469.772644   C604.843933,452.277557 612.075867,429.626221 622.689880,408.790375   C614.417603,415.099243 606.832397,421.879456 597.385681,425.883057   C593.924438,427.349945 592.231873,429.668274 591.336792,433.126343   C588.875183,442.636230 585.524902,451.823914 581.432983,460.776337   C577.462646,469.462891 575.091370,478.668213 573.731812,488.173096   C576.910706,480.972961 581.946228,475.315643 588.275818,469.772644  M460.720459,544.300354   C460.220856,544.310242 459.720306,544.303650 459.221802,544.332397   C449.343048,544.902649 446.126160,547.094727 444.167694,554.408997   C443.025787,558.673523 442.635132,563.071045 443.822632,567.227356   C444.796387,570.635742 449.042572,570.376343 451.531342,572.227600   C452.332092,572.823242 453.162292,573.383423 453.928253,574.020813   C456.208557,575.918396 458.015625,575.855530 459.481384,572.991516   C462.593323,566.911072 467.663055,562.608154 472.796509,558.311401   C481.350128,551.151917 489.838165,543.891602 497.513031,535.779846   C499.873474,533.285095 502.372345,530.456665 501.128052,525.621765   C489.548370,536.114014 477.860870,545.170166 460.720459,544.300354  M670.839600,415.654938   C672.420105,415.487610 674.248779,415.937622 675.251892,413.731293   C673.094604,410.544464 672.112610,405.630676 668.721191,404.160400   C661.804993,401.161987 656.691162,395.159119 649.249573,393.236237   C647.646790,392.822083 645.975281,391.583374 644.525513,392.721802   C639.071472,397.004364 632.564270,400.458008 629.750061,407.196472   C627.276123,413.119965 625.244751,419.239258 621.881836,425.763489   C630.073486,421.970337 637.750977,419.456360 645.666687,417.617157   C653.689819,415.752991 661.817322,415.588440 670.839600,415.654938  M724.111450,334.281616   C718.337585,335.108154 712.525391,334.975555 706.719055,334.966675   C700.001404,334.956390 694.066772,337.184174 688.642700,341.060425   C686.608215,342.514374 685.392883,344.214966 687.011536,346.452118   C691.439514,352.571899 696.461853,358.269775 699.638062,366.416931   C704.518372,358.862000 709.013428,352.415100 715.927612,349.008026   C722.642090,345.699371 725.580872,339.931702 729.058411,333.489746   C727.343384,333.778992 726.108398,333.987274 724.111450,334.281616  M332.128784,492.652588   C340.264160,491.282166 348.399567,489.911713 356.534943,488.541290   C349.378265,487.647491 343.943573,483.352875 337.853271,480.857513   C329.920685,477.607330 321.926086,475.090363 313.195801,477.125580   C307.070984,478.553436 303.519653,482.652740 300.462463,488.453064   C311.240356,490.112152 320.987122,493.042053 332.128784,492.652588  M544.647644,740.968689   C543.531799,753.198914 540.641357,765.325073 542.427429,777.731201   C544.431641,759.754517 549.699951,742.221924 549.138916,723.895630   C548.629944,707.268494 547.939148,690.616760 549.750610,674.002136   C550.526428,666.886292 551.256226,659.711853 550.510803,652.582581   C549.311096,641.108704 549.499817,629.625793 549.792053,618.147949   C549.980225,610.755371 548.955383,603.587952 548.059937,599.178406   C548.059937,602.760254 548.176941,609.068604 548.039673,615.371338   C547.449036,642.496277 546.492737,669.617065 546.263367,696.744385   C546.140991,711.211182 546.568970,725.668274 544.647644,740.968689  M570.668335,194.387360   C570.665833,203.224045 570.491821,212.053757 569.516663,220.919418   C572.678223,212.087509 576.340515,203.592819 581.776428,195.989883   C591.339966,182.613846 590.216431,167.736786 588.083679,152.652237   C586.941223,154.341873 585.911987,156.073166 585.524658,157.937820   C582.863892,170.746826 578.041626,182.654144 570.668335,194.387360  M387.433563,189.038910   C382.446869,188.989944 377.503693,188.531158 372.602386,187.580399   C371.493713,187.365311 370.105194,187.077393 369.574402,188.496033   C368.933655,190.208374 370.276581,191.001785 371.560944,191.328995   C375.606018,192.359528 378.648712,194.857468 381.450073,197.741867   C383.240631,199.585510 385.476105,200.050842 387.855988,199.762650   C397.561615,198.587296 407.282745,197.454926 416.709167,194.703827   C419.267456,193.957214 421.641693,192.852448 422.251648,189.676559   C419.765228,187.710571 417.050751,187.341125 414.176758,187.304581   C405.524902,187.194595 396.969635,188.466385 387.433563,189.038910  M446.162292,335.525055   C447.066864,338.803833 447.971436,342.082611 449.050476,345.993805   C451.236176,335.651917 453.237854,325.980103 455.344788,316.331238   C455.990875,313.372345 455.581421,311.569855 452.029327,311.218231   C446.833344,310.703827 442.126099,308.501495 437.544373,306.138000   C434.376770,304.504059 431.333832,302.628357 428.235199,300.860718   C427.935669,301.128174 427.636139,301.395599 427.336578,301.663055   C435.946472,311.403168 442.373352,322.309540 446.162292,335.525055  M663.767883,637.602356   C662.213989,620.572998 650.046692,609.119934 641.850220,595.557678   C649.645020,617.032715 656.071167,639.026306 667.474976,658.995728   C666.276611,652.148621 665.078308,645.301575 663.767883,637.602356  M638.992371,254.411758   C640.823181,253.274963 642.615540,252.069702 644.492371,251.014801   C649.335266,248.292831 653.072205,244.564423 654.250061,239.026413   C655.011169,235.447861 655.881958,231.526230 652.065002,228.371964   C646.906494,232.532349 641.870178,236.533249 636.929504,240.649033   C636.244263,241.219910 635.562378,242.423203 635.673889,243.222870   C636.575317,249.688080 632.912781,254.894150 630.850037,261.058899   C633.618591,258.788940 636.021484,256.818756 638.992371,254.411758  M414.663361,209.279007   C410.127197,218.977509 409.859802,229.577896 408.359100,239.892258   C407.492096,245.851486 406.001678,251.860031 407.409729,257.979492   C411.034821,237.096573 419.775391,217.762146 425.585724,197.465210   C423.231903,198.728348 420.101929,199.102936 419.641724,201.778107   C419.100800,204.922318 417.062317,206.681473 414.663361,209.279007  M623.147949,434.795715   C624.360779,432.905640 625.573608,431.015594 627.139465,428.575256   C622.038147,430.800934 618.738525,434.078003 616.537659,438.196472   C608.501038,453.235260 600.519165,468.296570 590.831787,482.466370   C591.629395,482.410889 592.121277,482.087677 592.612854,481.763855   C602.347595,475.351440 606.883789,464.400116 614.760254,456.362640   C615.075134,456.041351 615.306458,455.450073 615.275208,455.005798   C614.733337,447.302490 619.848816,441.770233 623.147949,434.795715  M278.281158,397.293762   C282.221039,404.917542 283.692688,413.887207 290.587219,419.953491   C285.718597,412.978546 285.798981,405.011322 285.635132,397.052490   C285.436829,387.417847 279.454773,378.099091 271.562988,375.630676   C270.617889,383.734741 275.575409,389.817841 278.281158,397.293762  M139.783646,305.521301   C136.740555,303.208588 133.534164,301.077301 130.703247,298.528900   C128.193085,296.269226 127.059875,293.348083 128.942719,290.006348   C130.762283,286.777008 133.526749,286.781006 136.729156,287.491333   C143.628769,289.021790 148.932663,293.138123 153.823624,298.010956   C154.095230,297.548309 154.272461,297.386169 154.245468,297.272461   C152.451736,289.713715 138.868210,281.406281 131.412994,283.435760   C126.247017,284.842010 125.084778,289.255005 124.064957,293.760193   C123.086525,298.082520 123.936348,301.854370 127.672401,304.331177   C132.092255,307.261292 137.285446,307.695221 142.577515,307.764099   C141.814316,307.152954 141.051132,306.541779 139.783646,305.521301  M506.740906,568.368347   C506.962219,581.804993 515.741211,588.784058 527.018799,594.986938   C523.757324,581.222168 516.272034,571.438904 505.614105,563.012634   C505.037872,565.430298 506.073883,566.475891 506.740906,568.368347  M496.177795,430.267731   C491.336853,420.832886 485.512451,412.043823 478.823547,402.823853   C485.270874,419.817535 497.277679,432.668579 504.023102,448.507233   C510.725464,464.244720 516.004700,480.626556 525.128418,496.353485   C518.740601,472.429993 508.055939,451.482941 496.177795,430.267731  M714.009521,445.456268   C709.063782,449.412231 704.382812,453.755554 697.532715,455.464111   C706.118164,462.486420 712.917480,458.490631 719.730713,454.229340   C723.092590,452.126678 727.844788,450.290436 725.072876,445.325012   C722.339966,440.429443 718.192932,443.357452 714.009521,445.456268  M677.222595,397.609680   C679.876709,397.706451 682.530151,397.859772 685.184998,397.887207   C689.628540,397.933136 694.902710,390.705841 693.560974,386.535156   C693.116638,385.153961 692.073303,384.723846 690.876892,384.822632   C685.260437,385.286346 679.583496,385.146179 674.046936,386.433533   C673.059387,386.663147 671.623108,387.119720 671.934021,388.110260   C672.987061,391.464996 671.690796,396.034790 677.222595,397.609680  M497.114288,351.318481   C495.043915,349.951813 492.872192,348.067505 490.384521,349.946747   C487.782898,351.912109 487.951141,354.847137 488.893280,357.662262   C489.360077,359.057098 489.905243,360.535431 490.811920,361.654327   C494.740112,366.501953 499.427887,370.528503 504.867889,374.410004   C503.952118,369.493500 503.139740,365.141296 502.331238,360.788422   C501.686218,357.315674 500.682556,354.028015 497.114288,351.318481  M228.466919,329.968597   C227.878586,337.410095 229.512161,344.521637 231.401001,351.394135   C233.641541,332.957489 233.146164,313.763794 245.202072,297.606171   C236.371185,303.941467 231.628784,313.236206 228.466919,329.968597  M532.302795,726.172302   C532.665466,728.055115 533.028076,729.937927 533.390686,731.820740   C532.870178,722.516724 531.598633,713.296204 531.031860,704.032654   C530.455139,694.606689 529.097107,685.240906 530.302856,675.667358   C531.435303,666.675598 532.200378,657.544678 531.395142,646.991089   C528.434265,660.091553 525.681824,671.920959 526.621277,683.888794   C527.710754,697.768127 530.277344,711.531494 532.302795,726.172302  M739.814148,503.747498   C740.250000,502.824982 741.665894,501.802582 739.422913,501.237122   C733.496887,499.743134 726.772827,503.730530 725.233093,509.833008   C723.613708,516.250793 723.618408,522.873413 722.711853,530.309631   C729.060425,521.421570 731.864807,511.284393 739.814148,503.747498  M356.075104,203.396194   C362.405518,203.575653 368.734711,205.175735 375.991638,203.644730   C371.235168,201.130554 367.268738,199.068039 364.763885,195.074600   C363.960724,193.794113 362.356354,193.270340 360.760132,193.523834   C354.554138,194.509445 349.284149,197.288513 344.111542,202.187561   C348.364105,202.583572 351.780640,202.901733 356.075104,203.396194  M620.907288,484.356354   C621.305725,484.117371 621.704163,483.878387 622.299622,483.521210   C603.408630,485.896301 581.582764,508.167084 575.780029,531.462524   C579.467102,525.464050 582.634338,520.216980 585.893494,515.027649   C594.390869,501.497742 604.723877,490.024323 620.907288,484.356354  M381.433075,480.982727   C391.131195,477.438141 394.561707,467.893982 401.017670,460.941467   C397.754395,459.838287 395.175171,460.927582 393.583893,463.062134   C387.080475,471.786255 378.780914,478.387085 369.803345,484.493164   C373.446350,483.422607 377.089355,482.352020 381.433075,480.982727  M285.596527,250.211136   C286.987793,245.032639 288.379059,239.854141 289.865387,234.321899   C288.105042,234.477554 286.967102,234.622055 285.825043,234.671387   C281.296631,234.867035 280.151978,236.734955 281.080841,241.409378   C283.409088,253.126617 283.124634,264.869171 279.123749,276.314392   C278.099426,279.244598 279.448914,280.137665 282.600250,280.220764   C281.379639,275.125488 281.653992,270.440643 282.547607,265.672180   C283.464233,260.780914 284.040314,255.826889 285.596527,250.211136  M404.322144,239.995499   C405.264709,233.886002 406.207245,227.776505 407.301910,220.681229   C396.155273,240.064865 397.633820,261.011047 408.263611,276.280029   C402.572693,264.961151 401.535187,253.110886 404.322144,239.995499  M609.154236,272.226318   C617.689636,269.421967 625.620300,259.761017 622.858337,250.451645   C614.965027,255.553223 610.129211,262.871307 609.154236,272.226318  M296.389221,401.220154   C294.435211,395.309875 290.771210,390.410187 286.895233,385.562225   C292.814056,395.456085 287.428040,408.980682 297.318085,418.444977   C299.270325,412.241425 297.921722,407.112000 296.389221,401.220154  M402.958313,162.007309   C404.678558,166.343613 409.039185,170.592590 403.155914,174.918427   C406.856110,178.902084 410.509064,179.795029 414.772339,175.536667   C412.074127,173.142288 414.387238,170.345367 414.706024,167.222565   C407.189789,168.928238 412.170929,163.098938 410.556854,160.709488   C407.280060,162.856659 405.863190,159.724716 403.977203,158.014114   C402.784332,159.156235 402.293732,160.124786 402.958313,162.007309  M151.619629,308.290314   C152.310532,308.547211 152.785507,309.515350 153.739090,308.955353   C150.520691,298.614655 141.995987,291.626526 132.175110,292.669922   C137.404587,300.012390 144.949173,303.192322 151.619629,308.290314  M263.217621,341.367737   C262.684357,342.318512 261.380493,342.792114 261.454834,344.157288   C270.960052,341.551086 281.177765,325.709015 282.471710,310.667969   C277.677643,322.469299 271.545105,332.241669 263.217621,341.367737  M167.983826,199.957672   C169.104752,213.721985 174.782455,224.273193 182.995102,227.182022   C174.916931,217.293289 171.498840,205.616425 167.160812,194.284836   C167.393845,195.906677 167.626862,197.528519 167.983826,199.957672  M463.439423,604.571411   C462.516022,602.806824 461.657471,601.004333 460.653717,599.286682   C459.212585,596.820557 457.567810,594.515808 454.609070,593.665344   C452.811157,593.148560 451.207611,593.671204 450.190430,595.130554   C448.944458,596.918091 450.643555,597.880859 451.737854,598.740051   C455.715607,601.863342 459.779388,604.877014 464.767365,608.656921   C464.126343,606.672668 463.883453,605.920837 463.439423,604.571411  M645.899963,630.408569   C648.214966,634.512146 650.529907,638.615784 652.844849,642.719421   C653.048523,642.611450 653.252197,642.503479 653.455872,642.395569   C648.677002,629.272217 643.898193,616.148804 639.119385,603.025452   C639.016357,603.073547 638.913391,603.121582 638.810425,603.169678   C641.068176,612.014526 643.325989,620.859436 645.899963,630.408569  M588.218994,413.342438   C588.296509,415.696625 586.773071,418.015900 588.217590,420.424713   C591.581970,405.619171 593.109497,390.647552 592.619385,375.478790   C591.811890,387.886749 589.604492,400.134583 588.218994,413.342438  M217.158127,230.962997   C216.894806,231.646042 215.887497,232.161469 216.835052,233.318054   C223.308472,229.783157 230.536209,227.948608 237.273361,224.896530   C230.361160,225.755905 222.542648,223.402420 217.158127,230.962997  M318.798706,433.389008   C318.202576,433.497833 317.056763,433.811249 317.785278,434.375977   C322.773499,438.243195 328.412048,440.336700 334.796112,440.055328   C330.670380,435.398956 325.294861,433.812195 318.798706,433.389008  M271.726837,394.998474   C272.707336,403.106567 274.091583,411.051422 280.746613,416.869171   C277.210510,409.679382 276.710266,401.319183 271.726837,394.998474  M423.189056,176.860138   C421.897491,178.176590 419.363922,178.576523 419.903778,181.365158   C422.305298,182.836670 425.245209,183.700562 427.342041,181.923035   C429.996185,179.673065 427.669464,176.819229 427.151215,174.291077   C425.138367,174.092972 424.809998,175.826706 423.189056,176.860138  M274.258423,370.988342   C271.207520,368.513977 267.943573,366.419128 263.255219,364.503998   C264.980255,368.255707 266.250977,371.019318 267.723419,374.221680   C270.801727,371.494507 273.830566,371.655273 277.042114,373.183807   C276.281067,372.578644 275.520020,371.973450 274.258423,370.988342  M427.585602,454.361786   C426.215912,454.322418 425.009766,454.707825 424.043457,455.721008   C423.010864,456.803711 421.836853,457.961975 422.786072,459.550842   C423.696014,461.073853 425.262390,461.783417 427.002350,461.185455   C429.393768,460.363617 430.637238,458.319397 431.034912,456.019104   C431.400879,453.902161 429.452667,454.544067 427.585602,454.361786  M445.304108,585.364258   C444.689301,585.698120 442.705383,585.264038 443.981628,586.762573   C447.773804,591.215271 450.719971,586.564819 454.493439,585.987000   C453.548340,584.143921 452.908752,582.875000 451.287323,582.262634   C449.693176,583.553467 448.229462,585.190735 445.304108,585.364258  M707.089600,365.431549   C711.292725,361.310913 715.106995,356.857880 718.482849,352.026764   C712.601807,356.615509 706.976318,361.428375 704.136902,368.713745   C704.965576,367.772400 705.794250,366.831055 707.089600,365.431549  M666.138428,390.390411   C664.216919,385.835327 661.221924,388.374908 657.686584,388.938019   C661.034363,391.412781 663.720703,393.398560 667.178894,395.954956   C666.805603,393.563416 666.606384,392.287231 666.138428,390.390411  M337.007477,116.602524   C338.725433,120.098999 340.515167,123.510139 346.307343,124.173660   C343.238739,120.083954 341.004364,116.998550 337.007477,116.602524  M541.642761,882.101685   C541.270935,874.506348 540.737915,866.921387 540.571533,859.309204   C540.773132,867.241943 539.468079,875.228394 541.215576,883.079224   C541.325867,883.575134 541.574402,883.572876 541.622375,883.142761   C541.640869,882.977661 541.635132,882.809937 541.642761,882.101685  M681.611389,498.365601   C681.457581,498.313843 681.277893,498.188538 681.157227,498.230988   C681.037231,498.273285 680.878723,498.505951 680.903748,498.617828   C682.447571,505.521637 684.008545,512.421570 685.567932,519.321899   C684.912354,512.350342 684.513184,505.351501 681.611389,498.365601  M436.706024,324.956512   C438.491486,329.012085 440.276978,333.067657 442.062469,337.123199   C440.295746,330.441620 438.305756,323.878448 433.541992,318.638184   C434.493958,320.522125 435.445923,322.406067 436.706024,324.956512  M527.814819,376.957520   C529.024170,375.344116 530.919678,374.079254 530.598450,371.379303   C527.099243,371.574097 525.768799,373.799530 525.427185,376.668976   C525.242432,378.219696 526.437927,377.897125 527.814819,376.957520  M519.432373,453.158630   C518.918945,450.757874 518.405518,448.357117 517.892090,445.956360   C517.692688,445.992950 517.493286,446.029541 517.293823,446.066132   C518.097839,451.813995 518.901855,457.561859 519.705872,463.309723   C519.990662,463.277985 520.275452,463.246277 520.560242,463.214569   C520.227600,460.139893 519.895020,457.065247 519.432373,453.158630  M333.112946,354.403351   C334.507568,356.358246 335.755951,358.447876 338.394287,359.346405   C335.707458,355.569977 333.020630,351.793549 330.333801,348.017090   C329.991394,348.239319 329.648987,348.461517 329.306580,348.683746   C330.448273,350.397369 331.589966,352.110992 333.112946,354.403351  M437.773987,571.655151   C436.324249,567.646423 433.276733,564.773376 430.689301,561.568176   C431.951355,565.544373 434.329132,568.754272 437.773987,571.655151  M562.372131,239.879196   C562.450562,240.022537 562.497559,240.208023 562.616638,240.296844   C562.725647,240.378098 563.036926,240.400177 563.047485,240.371155   C563.902710,238.027679 563.809753,235.735931 562.257751,233.501450   C562.257751,235.425934 562.257751,237.350403 562.372131,239.879196  M653.659241,380.898254   C652.703247,381.761261 651.733154,382.918030 653.835876,383.178558   C655.347229,383.365814 656.972717,382.631927 658.776672,382.261902   C657.464294,380.244232 655.873474,380.334290 653.659241,380.898254  z"></path>
</svg>