<svg version="1.1" id="Layer_1" xmlns="http://www.w3.org/2000/svg" xmlns:xlink="http://www.w3.org/1999/xlink" x="0px" y="0px"
	 width="100%" viewBox="0 0 736 1024" enable-background="new 0 0 736 1024" xml:space="preserve">
<path fill="#000000" opacity="1.000000" stroke="none" 
	d="
M237.172485,519.414612 
	C238.675461,516.286072 240.526917,515.846008 242.808533,517.990112 
	C245.247055,520.281616 247.539993,521.174622 250.702820,518.870178 
	C253.873276,516.560181 256.784821,518.110596 258.985382,520.817871 
	C262.919708,525.658203 264.043976,531.192444 262.277130,537.965759 
	C265.272736,536.788330 267.541748,534.173035 270.673737,536.222473 
	C274.101318,538.465271 275.357178,541.844238 275.888306,545.501770 
	C276.666443,550.860107 278.234741,555.815857 281.162537,560.424927 
	C283.179382,563.599854 284.013763,567.360718 283.036957,571.007324 
	C282.001434,574.873169 282.902924,578.178589 284.441681,581.595886 
	C286.342987,585.818237 286.385132,590.170349 285.787872,594.786926 
	C284.740509,602.882385 284.293182,611.051819 287.920380,618.811218 
	C289.788940,622.808472 290.073425,626.971985 287.694550,630.790710 
	C286.207642,633.177551 286.628754,635.098450 287.764343,637.289734 
	C289.647522,640.923767 290.764496,644.726562 289.581512,648.845703 
	C288.825836,651.476990 290.448303,653.266479 291.662964,655.236755 
	C294.715973,660.188904 295.125397,665.188782 291.985474,670.312195 
	C290.314514,673.038696 288.571716,673.457703 285.932373,671.385681 
	C282.721649,668.865051 281.701965,665.136230 279.640930,660.880676 
	C278.691162,664.948181 278.056580,668.267090 277.121857,671.499146 
	C276.195557,674.702087 274.568329,677.374695 270.618011,677.289246 
	C266.674469,677.203979 265.289093,674.526611 264.390503,671.243469 
	C262.801575,665.438293 264.314270,660.040710 266.380920,654.692200 
	C267.144043,652.717285 267.890381,650.735901 268.053253,648.342651 
	C266.764160,649.704956 265.558624,651.159851 264.170166,652.411926 
	C260.168610,656.020569 257.326508,655.217590 255.689194,650.190552 
	C254.313110,645.965515 255.634186,642.327698 257.974060,638.904175 
	C259.144989,637.190979 260.269562,635.719910 258.391144,633.637024 
	C251.906708,626.446777 253.521805,618.494080 256.953094,610.763550 
	C258.286713,607.758911 259.121094,605.391663 257.073303,602.498474 
	C253.434158,597.356934 255.530441,592.220032 257.652435,587.320618 
	C259.554108,582.929871 260.007935,579.424500 255.416397,576.197876 
	C252.104721,573.870667 251.727051,569.934387 252.827499,566.178406 
	C253.682068,563.261597 253.142853,560.698181 252.171951,557.951965 
	C251.332932,555.578857 250.398651,554.269287 247.555191,554.773132 
	C243.784271,555.441406 241.124634,553.587646 239.538528,550.207214 
	C237.936096,546.791992 235.356735,546.569824 232.548813,548.289551 
	C227.758423,551.223389 223.182068,552.542847 218.344650,548.333069 
	C217.512558,547.608826 215.855148,547.832947 214.196274,547.554810 
	C214.640793,550.929138 214.232574,554.174011 211.060806,555.347168 
	C208.326126,556.358765 208.663254,552.882202 207.098389,551.180786 
	C200.477509,564.210449 195.518921,577.494080 193.226547,591.724609 
	C191.980164,599.461975 191.139709,607.219666 191.162277,615.080688 
	C191.264130,650.568420 186.248306,685.451233 178.553925,720.006104 
	C177.861282,723.116699 177.297623,726.089294 178.716675,729.257568 
	C199.174133,774.930786 211.685226,823.077271 223.445541,871.515076 
	C231.538330,904.847290 239.550735,938.170837 244.725006,972.095703 
	C246.783127,985.589539 249.678650,998.916443 251.913116,1012.367065 
	C252.411072,1015.364502 253.426010,1020.027222 250.073959,1020.767883 
	C246.225830,1021.618164 246.619354,1016.617126 246.125031,1014.113281 
	C241.514664,990.760071 237.772156,967.222473 232.661240,943.983948 
	C220.608337,889.181274 207.609665,834.594788 190.551453,781.081726 
	C186.505478,768.389160 181.578934,755.987061 176.217484,743.777344 
	C175.568573,742.299500 175.233810,740.594055 173.532303,739.345825 
	C171.672195,742.817322 171.051117,746.557190 170.290726,750.208496 
	C167.610870,763.076721 165.158890,775.993042 162.411911,788.846497 
	C160.352173,798.484314 160.879120,807.862793 163.181702,817.457275 
	C169.944000,845.634705 173.613449,874.375671 178.433578,902.915283 
	C182.983734,929.856201 189.978012,956.318542 203.401886,980.550598 
	C204.934723,983.317688 206.685349,985.970093 208.112473,988.788391 
	C209.793274,992.107666 209.591797,995.194397 206.290726,997.611938 
	C203.809204,997.326111 203.204025,995.158569 202.239548,993.557434 
	C187.292160,968.745117 177.861893,941.802063 171.710312,913.635925 
	C165.667999,885.970215 163.239212,857.687073 157.571442,829.954041 
	C157.186111,828.068542 156.746643,826.194031 156.288101,824.113586 
	C154.546448,825.276733 154.450821,826.814453 154.123550,828.212524 
	C147.063782,858.372925 139.965988,888.524597 132.997147,918.706055 
	C131.044189,927.164062 130.201645,935.785461 130.223572,944.482361 
	C130.261795,959.648865 130.268570,974.815430 130.281998,989.981995 
	C130.283463,991.648315 130.375076,993.329895 130.185623,994.976868 
	C129.966843,996.878967 130.116516,999.554688 127.430481,999.487854 
	C125.279655,999.434265 124.894089,997.058655 124.774261,995.228333 
	C124.154320,985.758911 123.431412,976.290283 123.103859,966.808960 
	C122.255928,942.264282 122.378296,917.897949 131.480255,894.385132 
	C138.289810,876.794128 140.855881,857.976685 145.667206,839.797119 
	C146.561508,836.418030 147.341812,832.978394 148.598694,829.730774 
	C153.775360,816.355713 152.736435,802.633728 151.399628,788.811768 
	C150.005508,774.397278 148.889282,759.954468 147.786774,745.513733 
	C146.342590,726.597656 145.057693,707.669556 143.646606,688.750916 
	C143.202408,682.795410 139.529922,679.115723 134.504486,676.553650 
	C123.668655,671.029358 112.830330,665.509399 101.958839,660.055847 
	C97.023674,657.580139 92.119118,654.933716 88.004738,651.324341 
	C77.472534,642.084717 65.135513,637.327148 51.491035,635.296021 
	C45.848560,634.456055 40.425510,632.668823 35.530388,629.735229 
	C31.844101,627.526001 27.885851,627.842102 23.937340,627.508850 
	C22.022581,627.347229 19.465940,627.447998 19.218184,624.830750 
	C18.975595,622.268127 20.511492,620.323669 23.117344,619.758606 
	C31.211889,618.003235 39.126202,615.559448 47.697605,616.465759 
	C57.841999,617.538452 68.017586,616.574768 78.011169,614.517090 
	C89.981087,612.052490 100.116241,614.814819 108.152138,624.281677 
	C111.698441,628.459412 116.280190,631.019043 121.280479,633.108337 
	C126.463623,635.274170 131.475235,637.850525 137.452911,640.667175 
	C138.032227,633.590759 136.845718,627.248535 136.325195,620.940430 
	C135.635880,612.586792 133.211670,604.571289 129.989471,596.865601 
	C121.793404,577.265381 119.273895,556.375671 115.895844,535.687866 
	C113.026390,518.114868 110.426331,500.497894 107.690178,482.903015 
	C107.563522,482.088593 107.499962,481.111359 107.019875,480.529175 
	C103.219887,475.921173 101.227592,471.197815 105.511993,465.777374 
	C105.685226,465.558197 105.751236,464.954071 105.606514,464.827484 
	C101.432587,461.178467 101.905838,455.137085 98.944061,451.253571 
	C96.500679,448.049805 94.656723,444.924500 94.079399,441.183197 
	C93.622734,438.223846 92.375595,436.529694 89.801010,435.066559 
	C82.031158,430.650970 81.104576,426.462097 86.201889,419.314545 
	C87.574188,417.390289 88.062180,415.535370 87.819061,413.272675 
	C87.402756,409.398163 87.665092,405.596619 89.738678,402.143799 
	C90.989563,400.060913 90.564774,398.503296 88.655891,396.995270 
	C84.664406,393.841949 82.915039,389.707397 83.993973,384.626251 
	C84.416283,382.637451 83.592796,381.646881 81.967445,380.631775 
	C72.152298,374.501617 71.331963,370.821259 77.665092,361.555450 
	C78.684128,360.064484 78.966545,358.787292 77.472946,357.660156 
	C71.912056,353.463684 72.708389,348.131317 75.084076,342.832062 
	C76.564812,339.529083 76.309280,337.108337 74.059708,334.222382 
	C70.548904,329.718414 69.943275,324.135651 69.607452,318.604340 
	C69.414108,315.419800 70.009094,312.406677 73.421082,311.235352 
	C77.164848,309.950073 79.998871,311.802826 81.846024,314.899139 
	C84.043243,318.582306 85.882355,322.479126 88.572372,327.610535 
	C88.828636,322.518829 89.027435,318.742249 90.748444,315.346100 
	C93.195457,310.517181 97.147614,309.847046 99.788727,314.532898 
	C104.158813,322.286224 105.608376,331.517395 111.606697,338.555695 
	C112.220238,339.275604 112.265121,340.931976 111.924271,341.932495 
	C110.678520,345.589050 111.754639,348.371368 114.494026,350.843323 
	C115.196846,351.477539 115.933685,352.536255 115.941193,353.406158 
	C116.004852,360.776642 120.954475,366.946930 120.820053,374.462921 
	C120.760117,377.814056 122.416641,381.221954 123.438622,384.559875 
	C124.781059,388.944397 124.702019,393.191681 122.009407,396.996094 
	C120.215546,399.530670 120.350075,401.780884 121.672684,404.407928 
	C122.634964,406.319305 123.917488,408.795288 122.836777,410.610870 
	C119.739510,415.814270 121.844475,419.871552 124.537880,424.282288 
	C126.350380,427.250458 125.740311,430.836212 124.937782,434.064850 
	C123.505043,439.828949 124.370758,445.315033 126.400345,450.693176 
	C127.319672,453.129242 127.680420,455.573822 127.092392,458.035950 
	C126.380844,461.015381 124.341064,462.659424 121.204788,462.132385 
	C117.658325,461.536469 119.722580,458.809845 119.541626,456.611481 
	C118.345642,457.073059 117.277924,457.406769 116.281212,457.887665 
	C114.686203,458.657166 112.260429,459.211151 112.964668,461.499969 
	C113.557747,463.427490 114.923691,465.858063 117.250336,465.821808 
	C119.795120,465.782166 120.937012,466.704834 121.591919,468.881805 
	C122.385460,471.519562 121.361183,473.995239 119.282410,474.946106 
	C113.587151,477.551208 114.363541,481.637054 115.274605,486.555573 
	C119.909897,511.580139 122.861420,536.903381 128.245667,561.791626 
	C130.479111,572.115540 133.626862,582.241638 137.388763,592.325867 
	C138.163727,582.623962 138.976456,572.924927 139.706100,563.219604 
	C141.427444,540.323425 143.920547,517.505615 146.381561,494.680267 
	C148.414841,475.821960 149.949677,456.911133 152.703613,438.132111 
	C155.722656,417.545197 158.814087,396.903503 159.236359,376.108765 
	C159.915955,342.642365 168.157471,310.207916 171.551392,277.134277 
	C172.502640,267.864349 173.589752,258.607056 174.419678,249.326553 
	C174.776993,245.331207 173.299698,241.887787 170.398987,238.969162 
	C163.409531,231.936493 162.492554,225.506668 167.277573,216.890900 
	C168.681534,214.362961 169.833527,211.888733 169.825623,208.929550 
	C169.820679,207.075195 170.159821,205.009445 171.465546,203.784195 
	C175.433594,200.060822 175.309753,195.204803 175.700729,190.441833 
	C175.727982,190.109848 175.639130,189.735474 175.762573,189.449066 
	C178.514923,183.063416 178.836334,176.444260 177.849426,169.653381 
	C177.717529,168.745758 177.983002,167.410965 178.593369,166.823563 
	C183.309662,162.284698 181.526840,157.077957 180.345993,151.906616 
	C180.271820,151.581772 180.194473,151.256592 180.143143,150.927734 
	C178.526779,140.570984 181.067093,137.525620 191.389557,137.700272 
	C192.587296,132.696335 190.992874,127.831055 190.321762,122.968346 
	C189.848648,119.540421 189.733047,116.086357 191.279343,113.188301 
	C193.434952,109.148254 193.235687,105.301559 192.325287,101.123611 
	C191.835403,98.875443 191.723251,96.483902 191.841125,94.177505 
	C192.063095,89.833519 194.016403,86.738434 198.842743,86.798157 
	C201.913528,86.836151 202.857376,85.490723 202.969559,82.603249 
	C203.149734,77.965218 202.043884,72.602585 208.775208,71.029884 
	C210.092026,70.722221 209.728287,68.696426 209.750977,67.397308 
	C209.809509,64.046295 210.028839,60.701187 211.373489,57.603226 
	C213.479111,52.752014 215.694901,52.316242 219.602386,55.903465 
	C220.810760,57.012810 221.811966,58.347828 223.220413,59.930588 
	C224.162720,57.474800 224.812057,55.118000 225.928604,53.008499 
	C228.378738,48.379486 230.292923,48.216549 233.648804,52.130569 
	C234.617706,53.260601 235.463974,54.495785 236.436081,55.774326 
	C238.901764,55.734383 240.504532,53.690556 242.687363,53.032883 
	C244.826111,52.388485 246.967850,51.960930 248.819931,53.660976 
	C250.713470,55.399052 251.118668,57.579781 250.569244,60.056850 
	C249.766678,63.675236 247.227692,66.509926 245.974655,69.875458 
	C254.887344,75.531303 255.520126,79.264580 249.153610,87.979599 
	C247.582474,90.130318 245.936676,92.236870 244.189087,94.245308 
	C242.535492,96.145721 241.811188,98.202347 242.379028,100.682587 
	C243.580750,105.931633 241.713226,110.213547 237.992188,113.759033 
	C236.093201,115.568428 235.262756,117.225662 236.568375,119.844826 
	C238.196075,123.110069 237.053513,126.025360 234.500793,128.394699 
	C232.947433,129.836456 231.848907,131.379044 232.328247,133.629440 
	C233.623413,139.709793 230.544998,143.625473 225.597397,146.208069 
	C222.489792,147.830200 221.136810,149.523560 222.277969,153.175522 
	C224.196793,159.316254 222.094345,164.845169 218.058197,169.348663 
	C215.317245,172.406982 213.887268,175.546036 213.736313,179.554718 
	C213.578323,183.750092 212.167480,187.400269 207.675125,189.612213 
	C211.219528,193.278061 210.552902,197.526703 210.005997,201.791153 
	C209.689117,204.262024 209.142639,206.809906 209.439224,209.232574 
	C210.255753,215.902374 208.871078,221.461090 202.911362,225.315948 
	C201.230118,226.403442 201.572556,228.091782 201.772430,229.820709 
	C202.936813,239.892883 200.204575,243.423660 189.746979,245.587845 
	C182.044998,247.181763 181.599167,247.170410 181.400391,254.979752 
	C180.680801,283.250824 175.483505,310.842224 169.804840,338.425232 
	C166.303299,355.433319 165.732727,372.771454 166.327896,391.656311 
	C168.203537,389.476318 169.414062,388.221375 170.453979,386.838165 
	C189.623947,361.340057 211.332413,338.083771 233.771240,315.499908 
	C248.359268,300.817566 258.597351,283.444641 266.611237,264.582123 
	C268.695862,259.675354 270.738037,254.750488 272.837524,249.850128 
	C273.403870,248.528229 273.649841,246.857468 275.884979,246.692886 
	C278.474152,250.072937 276.225769,253.310074 275.090332,256.319794 
	C270.085968,269.584930 265.952698,283.113800 262.511627,296.849823 
	C259.314941,309.610413 256.456207,322.455414 253.304199,335.227600 
	C249.664963,349.973999 242.420288,362.697540 231.537994,373.345917 
	C222.009583,382.669525 212.438751,391.937653 202.293045,400.604645 
	C194.511276,407.252197 185.418365,411.904144 177.048447,417.650604 
	C170.522552,422.130951 165.382904,427.580505 164.093399,435.794159 
	C164.016434,436.284302 163.983887,436.886139 163.687851,437.221954 
	C154.497269,447.647797 157.039703,460.935547 155.557922,472.996674 
	C151.641022,504.878937 148.824799,536.896606 145.592407,568.862610 
	C144.754898,577.144958 143.844070,585.424194 143.242462,593.724854 
	C142.454147,604.601562 143.579025,615.193237 146.844574,625.758545 
	C151.462875,640.700623 155.217010,655.914734 159.138855,671.064819 
	C160.862228,677.722229 163.347290,684.028015 166.298996,690.209229 
	C168.359299,694.523804 170.808838,698.711426 170.153976,703.919678 
	C169.788574,706.825623 171.654922,708.851746 174.759293,710.258179 
	C176.854523,704.148560 177.360992,697.884338 178.480942,691.790649 
	C182.857193,667.979614 184.835831,643.914368 184.790527,619.732605 
	C184.736298,590.777527 191.376541,563.649963 205.486130,538.359558 
	C207.066696,535.526550 207.839050,532.520447 207.637909,529.252380 
	C207.446838,526.148438 208.196335,523.296387 210.260681,520.880676 
	C213.840408,516.691589 218.440872,516.703857 222.050446,520.907532 
	C226.167160,525.701843 233.686554,525.108154 237.172485,519.414612 
M209.282852,381.781372 
	C213.088669,378.054352 216.697433,374.097107 220.735168,370.641052 
	C236.312683,357.307526 246.447906,340.827484 250.974213,320.749329 
	C253.090668,311.361023 256.090729,302.171906 258.690308,292.892517 
	C249.711823,308.575317 237.566727,321.611450 225.844757,335.112061 
	C234.677170,339.187653 235.316589,343.044220 228.786560,349.953766 
	C227.986191,350.800659 227.170242,351.634918 226.327042,352.438873 
	C216.195923,362.098419 206.448837,372.114929 197.769485,383.124908 
	C195.914749,385.477692 194.062683,387.832855 192.236679,390.207886 
	C190.534210,392.422302 188.208878,394.242737 186.985535,397.770355 
	C195.732925,393.643280 202.270264,387.984344 209.282852,381.781372 
M158.944183,782.575989 
	C161.899597,768.590271 164.883789,754.610474 167.792358,740.615051 
	C168.633408,736.568115 170.542755,732.538574 169.475922,728.355713 
	C166.064529,714.980225 158.914093,703.487610 150.515137,691.138000 
	C151.148865,699.951538 151.654419,707.399597 152.225204,714.842712 
	C153.929031,737.060852 155.653915,759.277283 157.395981,781.492432 
	C157.459122,782.297668 157.789246,783.081909 157.994949,783.875977 
	C158.238190,783.795654 158.506821,783.754089 158.713837,783.618469 
	C158.814957,783.552246 158.801361,783.310913 158.944183,782.575989 
M97.192436,647.292786 
	C110.666405,653.439758 124.834549,657.954895 138.036392,664.895508 
	C137.622192,663.786194 137.096176,662.870850 136.306488,662.377808 
	C121.116257,652.892029 106.946083,641.619751 89.593689,635.918396 
	C84.397148,634.210938 78.933784,632.592102 75.660881,627.736389 
	C74.025169,625.309570 72.242706,624.903442 69.756317,625.693359 
	C64.924355,627.228638 59.947414,627.409729 54.941948,627.180542 
	C51.348003,627.015991 47.758865,626.746460 44.167583,626.523743 
	C47.054699,627.693909 49.985508,628.239807 52.924759,628.735596 
	C65.281166,630.819580 77.480774,633.190063 87.536087,641.618286 
	C90.172150,643.827820 93.505150,645.205811 97.192436,647.292786 
M225.251373,348.755676 
	C226.505981,347.215790 227.810532,345.713165 228.997131,344.122559 
	C229.752502,343.110016 231.018204,342.066528 230.054749,340.628693 
	C229.105408,339.211914 227.695786,339.816162 226.452225,340.257568 
	C223.604645,341.268402 220.947433,342.641724 219.142868,345.157684 
	C215.211823,350.638428 211.638733,356.336700 208.421860,363.560425 
	C214.803085,358.753571 219.825760,354.060394 225.251373,348.755676 
M184.624542,385.087158 
	C182.462997,387.830383 180.295364,390.568817 178.141678,393.318237 
	C176.041229,395.999664 173.955017,398.692322 171.862564,401.380035 
	C172.194992,401.625641 172.527420,401.871246 172.859848,402.116852 
	C182.471634,387.969910 198.149048,378.570160 204.281464,360.917480 
	C197.258133,368.810455 191.031113,376.559967 184.624542,385.087158 
M184.505127,188.302521 
	C181.745651,187.182709 180.004608,188.119431 179.282425,190.956482 
	C178.227081,195.102386 180.385330,198.659637 184.928238,200.342529 
	C188.669678,194.390121 188.703201,192.413727 184.505127,188.302521 
M102.846733,627.641357 
	C95.950996,621.905640 92.156219,620.596863 87.158325,622.378540 
	C94.486160,627.337158 102.350594,630.929932 111.496429,635.051025 
	C108.082924,632.142273 105.725578,630.133545 102.846733,627.641357 
M211.343796,164.979385 
	C213.947540,163.986649 215.784378,162.180954 216.832993,159.622055 
	C217.324432,158.422775 217.961853,157.086609 216.743073,155.957825 
	C215.610245,154.908676 214.238464,155.208710 213.039154,155.803253 
	C209.193649,157.709625 206.499603,160.551636 205.719269,164.895874 
	C207.482498,166.164719 209.070221,165.658173 211.343796,164.979385 
M173.689835,209.098312 
	C172.453644,214.927963 177.098816,214.595596 180.567627,216.084488 
	C181.553680,212.839600 184.577591,210.002182 181.212997,207.211685 
	C178.808441,205.217438 175.964172,205.337067 173.689835,209.098312 
M186.420380,179.866165 
	C187.680923,180.819382 188.721573,182.302689 190.868713,181.607208 
	C191.162537,180.976578 191.535172,180.265778 191.832031,179.524612 
	C193.261795,175.954803 191.564468,173.498062 188.814590,171.552353 
	C187.468079,170.599609 185.793961,169.683792 184.431824,171.415955 
	C182.184647,174.273560 184.228210,176.619003 185.637375,178.987610 
	C185.720047,179.126541 185.847900,179.238586 186.420380,179.866165 
M194.484283,152.985184 
	C192.383850,150.629990 190.978424,147.232468 186.898315,147.683731 
	C185.859726,153.771042 189.393311,157.758179 196.769394,159.036545 
	C197.200378,156.838562 195.859146,155.268250 194.484283,152.985184 
M220.935074,114.623116 
	C215.944717,116.244034 218.114975,120.744186 216.684174,124.100746 
	C221.032486,125.184685 224.661606,124.533272 228.332428,122.666618 
	C224.443085,122.327728 222.082169,120.983192 223.020767,116.664383 
	C223.211807,115.785324 222.283432,115.279350 220.935074,114.623116 
M225.551041,138.535065 
	C226.179916,137.834305 227.462448,137.227203 226.718079,136.133270 
	C225.828568,134.825974 224.332733,135.327698 223.047440,135.597656 
	C219.804214,136.278854 216.648682,139.238312 213.358459,135.503830 
	C212.722672,137.640121 211.677658,139.235580 212.146439,141.387985 
	C216.760742,142.296097 220.935394,140.999527 225.551041,138.535065 
M177.707932,226.744049 
	C177.145065,223.594559 174.956299,222.943649 172.218872,223.233597 
	C170.437546,223.422256 169.512222,224.627594 169.689316,226.276047 
	C170.064102,229.765060 171.639282,232.432800 175.301849,233.384232 
	C177.248734,231.747635 177.459549,229.613464 177.707932,226.744049 
M215.798553,95.998291 
	C210.573425,93.001076 213.231064,85.989769 208.362488,81.836845 
	C208.445694,88.923370 208.983688,95.037537 213.550095,100.200279 
	C215.262695,99.170105 215.700134,97.783073 215.798553,95.998291 
M209.502350,108.510361 
	C208.163574,102.754868 204.359894,98.764328 199.663803,98.188492 
	C199.941208,103.524666 203.358185,107.420029 209.502350,108.510361 
M260.043579,619.575073 
	C259.361176,621.724854 258.718903,624.335632 261.455963,625.045837 
	C264.322968,625.789856 265.719299,623.131592 266.946045,620.932983 
	C268.009369,619.027344 267.820343,617.427307 265.662933,616.416077 
	C262.876465,615.110046 261.250946,616.333740 260.043579,619.575073 
M264.138214,603.883362 
	C264.959076,604.376526 265.682404,605.186584 267.089569,604.595032 
	C267.207825,601.553284 267.250671,598.463806 264.718475,596.052673 
	C263.493042,594.885803 262.005890,593.821594 260.336975,595.075867 
	C258.718292,596.292297 258.965790,598.070374 259.979889,599.512146 
	C261.008514,600.974548 262.380402,602.195557 264.138214,603.883362 
M105.632545,379.119385 
	C105.409286,380.929535 104.815628,382.809875 106.531578,384.732971 
	C108.266823,380.967529 110.795441,378.378326 113.258247,375.727936 
	C114.076546,374.847321 114.609375,373.723907 113.665947,372.626282 
	C112.597931,371.383728 111.354240,371.625366 110.161026,372.531433 
	C108.140007,374.066101 106.657440,375.994812 105.632545,379.119385 
M197.648071,141.720261 
	C198.480865,143.106079 199.121887,144.700165 201.355225,144.964249 
	C202.406754,142.551575 204.613373,140.206894 202.701614,137.454666 
	C201.748703,136.082809 199.485123,135.068207 197.818146,135.853592 
	C195.248978,137.064056 197.037613,139.258118 197.648071,141.720261 
M217.936920,77.140099 
	C218.766083,78.115204 218.878128,79.816360 220.840378,80.222198 
	C220.654282,74.721390 220.353348,69.694183 216.614807,64.701317 
	C215.529327,69.301132 216.108566,72.934090 217.936920,77.140099 
M272.838287,655.566528 
	C270.897949,659.292175 268.504669,662.934509 270.293701,668.343018 
	C275.067291,664.356140 274.325775,660.108887 272.838287,655.566528 
M116.574219,390.631317 
	C117.355110,389.551178 117.130119,388.639954 115.825340,388.479523 
	C113.970123,388.251465 112.438858,389.275787 111.829941,390.895355 
	C110.535484,394.338409 109.559090,397.901031 108.452324,401.414642 
	C111.649651,398.270752 112.374672,393.637909 116.574219,390.631317 
M196.010742,202.045746 
	C199.099091,205.299271 203.219666,203.528030 205.207748,197.758926 
	C201.588989,197.763885 198.696274,198.928009 196.010742,202.045746 
M98.100296,391.658661 
	C98.875900,391.778229 99.676979,392.282471 100.621536,391.273651 
	C99.601303,387.927612 96.692276,386.679047 93.693642,385.882751 
	C92.243248,385.497620 90.742630,386.288574 90.773201,388.352234 
	C92.592529,390.310303 95.175407,390.589905 98.100296,391.658661 
M228.162231,107.396217 
	C230.862762,107.897614 233.359848,107.900742 234.943787,104.737259 
	C231.170303,102.745827 226.375854,107.659447 223.706558,101.780090 
	C222.048538,106.506180 225.625290,106.104065 228.162231,107.396217 
M271.388397,570.685059 
	C272.672424,568.941467 275.657410,569.827087 276.560333,567.323608 
	C275.841217,565.200500 274.622223,563.158630 272.159882,563.724121 
	C269.392609,564.359680 270.178497,567.069763 270.206879,569.098694 
	C270.215546,569.719360 269.647491,570.825378 271.388397,570.685059 
M253.864243,534.369568 
	C256.202911,534.579163 258.242523,534.171997 256.997253,531.209961 
	C256.294434,529.538269 255.213943,526.909851 252.842804,527.818542 
	C250.376205,528.763733 251.332138,531.098572 252.278473,532.942078 
	C252.495682,533.365234 252.935425,533.674194 253.864243,534.369568 
M87.200089,370.360229 
	C85.207687,369.772369 83.185753,368.791199 80.919640,370.943665 
	C84.578285,373.622192 88.245033,374.842621 93.792313,374.326599 
	C91.131683,372.670929 89.488304,371.648315 87.200089,370.360229 
M111.443108,409.903015 
	C111.170494,411.744843 111.754089,412.896881 113.823570,412.584747 
	C115.543221,412.325348 117.050880,411.606659 117.465378,409.707794 
	C117.754036,408.385468 117.014183,407.383301 115.873734,406.924042 
	C113.625214,406.018616 112.540573,407.530548 111.443108,409.903015 
M104.993713,445.079407 
	C104.171005,442.924072 103.897110,440.242249 100.617485,440.179291 
	C99.669151,442.908295 100.909218,444.956024 101.799202,447.041290 
	C102.122169,447.798004 102.718636,448.483459 103.706154,448.288727 
	C105.146309,448.004791 105.533783,447.050629 104.993713,445.079407 
M221.403595,539.278381 
	C221.772858,538.484192 223.177551,538.230225 222.604919,536.826355 
	C220.267334,537.369934 217.653824,536.960266 215.626053,539.206543 
	C216.109787,540.844849 216.461044,542.545288 217.954056,544.014038 
	C219.102158,542.406067 220.051285,541.076721 221.403595,539.278381 
M229.303391,67.082390 
	C229.478409,68.729309 229.694473,70.356216 231.551804,72.101067 
	C231.603455,67.698189 232.670029,64.028732 230.411453,60.391594 
	C228.719437,62.387943 229.399750,64.417854 229.303391,67.082390 
M263.384796,567.358276 
	C261.358093,565.363831 259.278412,566.307556 258.936035,568.357727 
	C258.458893,571.214966 261.001984,572.086914 263.586700,572.721924 
	C263.586700,570.912231 263.586700,569.472900 263.384796,567.358276 
M287.258972,665.486389 
	C289.276825,666.351501 289.635620,664.894836 289.562378,663.563538 
	C289.397949,660.572998 287.446960,659.133240 284.182770,658.026489 
	C285.020844,660.890320 285.461304,663.125366 287.258972,665.486389 
M122.735634,639.881409 
	C122.306526,639.910217 121.877411,639.939087 121.448280,639.967896 
	C121.514282,640.114685 121.538849,640.322876 121.652275,640.399414 
	C125.964554,643.308044 130.285065,646.204590 134.604446,649.102722 
	C131.660431,644.993408 127.858330,642.027649 122.735634,639.881409 
M198.048935,119.728783 
	C196.579056,124.632660 200.403320,124.150055 203.594452,125.983101 
	C202.643524,122.154747 201.454956,120.136429 198.048935,119.728783 
M275.909912,622.157410 
	C275.291016,622.967773 274.541077,624.141357 275.860291,624.558594 
	C277.876251,625.196167 280.077759,625.299622 281.488953,623.082886 
	C280.282379,620.010376 278.472076,620.230591 275.909912,622.157410 
M276.632233,602.308350 
	C274.614990,603.027466 273.394775,604.299255 273.595123,606.846008 
	C275.869354,607.288879 277.878693,606.849976 279.053406,604.856689 
	C279.970551,603.300354 278.769897,602.534912 276.632233,602.308350 
M239.135712,537.505371 
	C236.810974,536.815369 234.473633,533.976013 231.730301,537.633118 
	C234.509674,539.282288 236.917313,539.700256 239.135712,537.505371 
M189.113266,234.899460 
	C191.121231,237.083267 192.790436,236.500031 195.073425,232.757004 
	C192.658325,231.545319 191.150146,233.268295 189.113266,234.899460 
M265.139252,547.146606 
	C266.953766,548.629028 266.953766,548.629028 270.162872,547.827209 
	C269.102631,544.792542 267.733582,544.097717 265.139252,547.146606 
z"/>
<path fill="#000000" opacity="1.000000" stroke="none" 
	d="
M651.433960,658.604004 
	C653.549988,670.656860 651.114624,681.985840 649.182251,693.272461 
	C645.507690,714.735474 642.991211,736.407166 636.632385,757.385132 
	C630.405273,777.928528 619.928223,796.587097 611.370605,816.083862 
	C607.732605,824.372314 606.673828,831.932007 609.450012,840.547852 
	C620.490173,874.811218 624.766846,910.375732 629.480164,945.874329 
	C631.499573,961.083252 632.934204,976.292358 633.406799,991.609314 
	C633.537415,995.843445 634.923584,999.750793 636.408264,1003.651489 
	C637.633728,1006.870972 638.253174,1010.057617 634.606201,1012.818359 
	C629.167908,1007.130615 628.269226,999.867859 627.851685,992.931458 
	C626.298950,967.140137 622.706116,941.621826 618.717957,916.132690 
	C614.705383,890.488464 611.870972,864.621033 603.882324,839.750854 
	C603.642395,839.003845 603.440857,838.244385 602.851013,836.218933 
	C597.873535,847.995239 593.278198,858.690247 592.546082,870.354919 
	C591.419983,888.296204 589.488953,906.219177 590.115295,924.240662 
	C590.560242,937.042175 592.961731,949.716675 592.287048,962.608337 
	C591.660950,974.573242 591.412659,986.560242 592.102173,998.546143 
	C592.215576,1000.517578 591.975464,1002.547241 591.609985,1004.495850 
	C591.330933,1005.983459 591.596313,1008.279968 589.165710,1008.153870 
	C587.105469,1008.046936 586.731506,1006.013062 586.413269,1004.450256 
	C586.018555,1002.512451 585.905518,1000.491455 585.895630,998.505188 
	C585.807251,980.675171 586.377075,962.815491 585.517517,945.024231 
	C584.858521,931.385193 583.713257,917.789246 584.718323,904.144958 
	C585.866516,888.557434 585.747681,872.840942 588.772949,857.437012 
	C590.640625,847.927246 594.707153,839.071167 597.861511,829.947754 
	C599.132568,826.271729 599.838745,822.739136 598.853516,818.749084 
	C593.781921,798.210938 594.197510,777.581238 600.694275,757.566895 
	C611.678345,723.728577 611.767578,689.084961 610.173218,654.194031 
	C609.800964,646.046082 610.201721,637.795044 609.040588,629.765930 
	C606.966675,615.425720 602.740967,601.504395 598.903809,587.553406 
	C593.955627,569.563110 595.630493,552.241455 602.793213,535.297119 
	C609.359985,519.762329 615.299744,504.069946 617.142944,487.141266 
	C618.464172,475.005798 617.936462,462.839935 617.417114,450.703552 
	C616.791016,436.073334 615.736145,421.460358 614.775452,406.845917 
	C614.091980,396.448181 614.045349,385.995575 611.634094,375.442566 
	C610.781799,377.856873 609.895813,380.259918 609.084045,382.687775 
	C607.339539,387.904755 604.613342,392.371094 599.621704,395.087463 
	C596.208984,396.944611 592.748108,397.263184 590.193909,393.880707 
	C587.246033,389.976929 583.224182,388.511597 578.735779,387.452026 
	C572.929932,386.081451 571.573425,383.421783 573.788147,377.992035 
	C575.554565,373.661377 577.761902,369.473419 580.813232,365.942535 
	C585.858643,360.104340 592.464355,358.589325 599.869324,360.133728 
	C603.824585,360.958649 607.339417,362.846375 611.816284,365.844116 
	C611.906982,342.666107 609.422791,320.723358 607.874756,297.940094 
	C600.272400,299.814911 594.281555,302.531342 588.669617,306.058746 
	C582.140076,310.162903 575.520569,310.136444 568.631226,307.182312 
	C565.540649,305.857086 563.984131,303.676300 563.782837,300.301727 
	C563.038147,287.816956 572.197144,278.255127 584.663452,278.952423 
	C592.841919,279.409851 600.673401,281.626038 608.307922,285.080902 
	C610.544739,280.619049 609.070801,276.339264 608.039185,272.290924 
	C605.244080,261.321777 601.995239,250.469025 599.045410,239.537964 
	C598.356506,236.985413 597.904358,234.319153 597.751038,231.681519 
	C597.336121,224.539520 590.504761,217.578934 583.341370,217.333725 
	C572.191956,216.952057 561.041626,216.585968 549.889343,216.308197 
	C546.852722,216.232559 543.898438,215.840179 541.068848,214.800476 
	C536.457764,213.106216 534.233765,209.569672 534.183655,204.798340 
	C534.131409,199.812744 536.953125,196.315933 541.824280,194.908295 
	C548.464600,192.989395 555.038452,193.878296 561.567932,195.527725 
	C568.505005,197.280121 575.336182,199.456741 582.519348,200.153595 
	C585.872803,200.478928 588.625793,202.543518 592.174011,204.435715 
	C590.331787,199.126465 587.984497,194.792038 585.207764,190.701187 
	C580.062195,183.120468 574.742432,175.657562 569.632385,168.053452 
	C567.981201,165.596359 565.939819,163.955032 563.242371,162.746948 
	C551.905640,157.669724 540.187805,154.134979 527.759216,153.036179 
	C522.551514,152.575760 517.718872,150.614304 513.086853,148.304535 
	C506.066223,144.803665 501.566589,134.318100 504.621521,128.967117 
	C507.641022,123.678131 519.798096,121.230072 525.897461,124.926361 
	C533.303772,129.414642 540.548767,134.168884 547.870239,138.797531 
	C549.539551,139.852890 551.236267,140.864975 552.930420,141.903107 
	C554.224121,140.253510 553.079468,139.074890 552.590332,138.035217 
	C545.924622,123.867744 539.149597,109.751732 532.457886,95.596390 
	C531.162903,92.857048 529.410339,90.874115 526.223511,90.536720 
	C525.736633,90.485176 525.187012,90.362206 524.804749,90.082939 
	C506.351807,76.602852 485.511017,65.724602 474.783020,43.851509 
	C471.724609,37.615765 473.237305,29.047012 478.390106,25.300724 
	C484.271423,21.024775 495.457947,21.729691 500.660980,27.084146 
	C503.779114,30.292994 506.190002,34.176403 509.157379,37.546562 
	C524.766418,55.274479 531.481018,77.456757 539.986328,98.749397 
	C545.869873,113.478622 552.837463,127.667549 561.302979,141.098145 
	C562.082642,142.335129 562.709045,143.742157 564.164978,144.399994 
	C564.420532,144.171722 564.817749,143.992355 564.846191,143.766525 
	C566.631409,129.601105 570.421204,125.665352 584.371521,123.607285 
	C586.839722,123.243164 589.319214,122.875427 591.806335,122.734657 
	C601.120789,122.207451 607.819580,126.178932 611.973694,134.557953 
	C616.405151,143.496292 617.739929,153.304810 619.926819,162.858078 
	C620.654968,166.039322 618.867310,168.707947 616.088989,170.407257 
	C613.227112,172.157623 610.667725,171.121628 608.295044,169.209442 
	C602.582886,164.605865 597.115601,159.741516 591.960693,154.508408 
	C587.882019,150.367889 583.095581,148.630295 577.455017,151.352097 
	C572.441101,153.771530 570.976929,157.939407 573.528503,162.932602 
	C576.194946,168.150574 579.670715,172.867096 583.436401,177.316315 
	C590.535767,185.704315 595.673706,195.131149 599.163147,205.507507 
	C599.480530,206.451370 599.877991,207.371887 600.298462,208.275223 
	C600.418701,208.533463 600.750610,208.693161 601.428467,209.284515 
	C605.293213,199.806534 612.348389,193.569107 621.261353,189.260101 
	C626.603088,186.677582 632.205444,185.344788 638.182312,185.658981 
	C646.490295,186.095718 652.349365,192.830765 652.256165,201.941010 
	C652.172729,210.094177 646.754639,215.204742 638.165710,215.426193 
	C632.794800,215.564667 627.515442,214.819122 622.276367,213.896164 
	C618.380066,213.209763 614.646301,213.812500 610.864441,214.383972 
	C607.119690,214.949844 605.176514,217.160553 604.252014,220.854004 
	C602.312927,228.601120 603.514893,236.112503 605.648315,243.513382 
	C609.817078,257.974976 617.165833,271.689819 615.023560,288.016205 
	C621.825439,288.016205 627.936523,288.069305 634.046448,288.005707 
	C649.265991,287.847321 655.385254,293.486572 656.029541,308.660614 
	C656.162292,311.788513 655.782471,314.992706 655.218506,318.085052 
	C653.739441,326.195190 647.433350,329.046814 640.310791,324.424042 
	C633.615845,320.078796 627.387573,315.015472 620.943176,310.282715 
	C619.221436,309.018311 617.460327,307.807526 615.720398,306.574310 
	C613.607910,308.402374 614.258789,310.567902 614.307983,312.391388 
	C614.712341,327.380035 616.539062,342.263977 617.752197,357.194366 
	C618.034363,360.667419 619.462463,362.008240 623.062988,362.121185 
	C631.933411,362.399506 639.527161,365.935791 645.753113,372.287689 
	C649.357971,375.965515 651.862732,380.022888 651.461914,385.574432 
	C651.006714,391.881073 648.993225,394.132141 642.498413,394.265900 
	C634.557068,394.429474 627.509949,391.753052 621.223877,386.995453 
	C619.404968,388.690033 620.073486,390.636108 620.013062,392.347046 
	C619.228943,414.551178 621.610840,436.613068 623.407654,458.677338 
	C625.487976,484.224762 620.106995,508.332397 610.817627,531.818909 
	C607.315308,540.673828 604.819885,549.812805 602.402344,558.988464 
	C600.103455,567.714233 602.265930,576.125122 604.126831,584.591309 
	C607.199463,598.570007 611.956543,612.145447 614.261536,626.296143 
	C617.200073,644.336426 616.276489,662.528320 615.678101,680.660645 
	C615.255615,693.461670 615.707825,706.364319 613.588867,719.038879 
	C610.513184,737.436584 605.065674,755.317871 601.053955,773.520020 
	C597.954346,787.583862 599.793884,801.273132 603.054382,815.009277 
	C603.554688,814.907776 603.977905,814.934387 604.045410,814.792236 
	C612.827087,796.284302 621.756836,777.832031 629.095337,758.691223 
	C635.454895,742.103699 637.831787,724.577759 640.658508,707.155579 
	C641.651367,701.036743 641.730286,696.343872 636.908386,690.935547 
	C631.614014,684.997314 629.347778,676.561157 626.980652,668.757446 
	C626.064209,665.736450 625.746704,661.929443 628.959900,659.536987 
	C631.859619,657.378113 634.720947,659.147156 637.447510,660.275146 
	C640.027283,661.342285 642.515320,662.631287 645.896667,664.224548 
	C646.051025,657.764954 646.109253,652.068787 645.096863,646.405701 
	C644.941284,645.535400 644.168640,644.588623 643.416687,644.039612 
	C631.544983,635.369080 627.439209,622.340210 624.018860,609.054932 
	C622.997253,605.086609 622.887756,600.788818 622.974487,596.654907 
	C623.070557,592.075684 626.261902,590.098389 630.554565,591.721619 
	C637.151123,594.216003 641.975403,598.432251 643.361633,605.790161 
	C644.555481,612.127502 645.756165,618.474609 648.519287,625.828796 
	C652.778625,618.172302 656.558167,611.446655 660.253113,604.674805 
	C660.940308,603.415466 659.955566,602.465454 659.098511,601.656372 
	C652.234436,595.176086 648.548462,586.802307 645.040161,578.295288 
	C643.645569,574.913513 641.954956,571.654053 640.406311,568.335571 
	C638.059387,563.306458 637.757874,558.354553 641.294983,553.729004 
	C643.312195,551.091003 646.126160,550.128662 649.312561,551.135437 
	C654.904968,552.902283 659.133545,556.184753 660.125000,562.357727 
	C661.629028,571.722412 662.972839,581.112793 664.418518,590.487000 
	C664.567261,591.451477 664.945862,592.380615 665.483704,594.250183 
	C669.336670,586.182007 671.833679,578.527893 674.374634,570.892151 
	C674.988403,569.047668 673.834045,567.710327 672.989258,566.293274 
	C663.646790,550.622131 660.658447,533.408752 660.788330,515.477905 
	C660.819092,511.231232 662.221008,507.485291 666.781372,506.095154 
	C671.260376,504.729797 674.775574,506.417267 677.963684,509.699951 
	C685.406677,517.363770 685.091614,527.298828 686.216309,536.809875 
	C686.777466,541.555420 687.022156,546.338379 687.449585,551.591492 
	C693.407959,545.096924 699.999756,540.642334 708.489929,539.536987 
	C715.828369,538.581482 724.230042,544.194275 725.953674,551.447510 
	C726.905640,555.453430 725.924622,558.529724 721.771362,560.416809 
	C709.805359,565.853760 698.161560,572.133118 684.511292,572.425781 
	C681.510498,572.490051 679.330322,574.402832 677.944031,577.170105 
	C676.001221,581.048462 674.756653,585.153870 673.464233,589.297424 
	C675.396423,590.541504 677.195496,589.766846 678.885742,589.415222 
	C682.363647,588.691711 685.924927,588.363220 689.317932,589.089844 
	C696.511719,590.630432 703.761536,591.371826 711.078552,591.863525 
	C716.371948,592.219238 719.456787,595.368774 719.542908,599.935547 
	C719.635071,604.817993 716.684448,608.489990 711.455627,609.088989 
	C702.288940,610.139160 693.174377,608.717224 684.077942,607.777771 
	C679.952454,607.351685 675.862854,606.456238 671.801819,605.568604 
	C669.023926,604.961304 667.049011,605.379517 665.576721,608.118713 
	C661.876770,615.002502 657.973938,621.777222 653.691040,629.419006 
	C659.049927,627.303589 663.812500,626.359985 668.770020,626.710266 
	C673.575806,627.049927 677.903687,628.635498 681.577698,631.731934 
	C684.679382,634.346008 685.681396,637.666870 684.326050,641.619629 
	C683.010071,645.457336 680.112122,646.373352 676.440491,646.261230 
	C669.951538,646.062988 663.457764,646.380859 656.975891,645.540405 
	C651.593933,644.842468 650.990112,645.588379 651.164001,651.144043 
	C651.236938,653.476013 651.313232,655.807861 651.433960,658.604004 
M479.065247,43.362331 
	C482.881714,49.771469 487.781555,55.133442 494.273956,58.912598 
	C501.472412,63.102699 508.705383,67.233376 515.918945,71.397606 
	C518.576050,72.931511 521.220581,74.487274 524.255188,76.257217 
	C524.182129,73.276115 523.243774,71.308083 522.242981,69.449524 
	C515.353882,56.656342 506.658264,45.054779 498.177765,33.317265 
	C496.883087,31.525360 494.946289,30.210890 492.821472,29.820684 
	C487.602081,28.862196 481.941315,27.450062 477.697083,31.776955 
	C474.247803,35.293388 476.495117,39.228161 479.065247,43.362331 
M602.464050,155.015594 
	C606.160828,157.724976 609.058105,161.783066 615.321533,162.866470 
	C613.109314,152.875977 612.318909,143.631592 607.023865,135.699738 
	C604.506165,131.928314 600.728088,129.750443 596.196655,129.351303 
	C589.681580,128.777451 583.223572,129.614868 577.013489,131.507080 
	C571.062500,133.320358 568.376160,139.376724 570.736755,144.958679 
	C571.471802,144.616211 572.216736,144.310303 572.923828,143.933411 
	C582.520813,138.817886 589.101807,140.048889 596.201721,148.379318 
	C598.026306,150.520142 599.491943,152.980957 602.464050,155.015594 
M679.498657,520.287476 
	C679.286499,519.836487 679.111511,519.363281 678.856689,518.937927 
	C675.379822,513.133728 670.658936,509.757019 667.928406,511.105499 
	C664.942871,512.579895 663.605164,518.891174 665.377319,524.917114 
	C668.235901,534.637756 671.299500,544.299011 674.359253,553.959167 
	C675.174866,556.534119 676.103271,559.147461 678.772644,560.822083 
	C681.448608,555.459167 683.018311,550.328247 682.984070,544.682251 
	C682.935242,536.639526 681.581116,528.813416 679.498657,520.287476 
M651.086121,319.172638 
	C652.505188,316.506805 652.078491,313.654419 651.806396,310.863464 
	C650.931824,301.894714 646.887817,298.271881 637.877869,298.198456 
	C634.229370,298.168732 630.601868,298.008881 626.951172,297.659332 
	C623.183472,297.298584 619.138489,296.469574 615.742432,298.326080 
	C615.294495,299.804413 615.688293,300.586609 616.332031,301.104706 
	C625.138794,308.193054 634.308960,314.785278 643.852966,320.839722 
	C646.212708,322.336670 648.636902,321.961182 651.086121,319.172638 
M598.614075,288.879211 
	C592.738525,286.830963 586.722595,285.742950 580.481384,286.315277 
	C574.473206,286.866302 569.777222,290.573456 568.222473,295.784332 
	C567.179382,299.280060 568.186401,301.552795 571.717896,302.784393 
	C576.780579,304.550018 581.598999,303.861633 586.161621,301.377167 
	C590.859619,298.818939 595.765259,296.827606 600.809326,295.092102 
	C602.409729,294.541443 604.511902,294.568237 605.268311,292.409393 
	C604.011902,289.952911 601.406616,290.032471 598.614075,288.879211 
M602.376770,386.809448 
	C604.459717,383.380676 605.799683,379.647034 607.045837,375.852570 
	C607.734924,373.754089 607.097839,372.430267 605.467590,371.143799 
	C596.145264,363.787567 581.660889,368.667450 578.778931,380.423126 
	C583.149353,382.174255 587.657043,383.665497 591.068481,387.411346 
	C595.078857,391.814789 597.188782,391.603058 602.376770,386.809448 
M533.842041,146.657471 
	C538.678528,146.578720 543.420410,147.514587 548.704529,148.498672 
	C543.824890,145.002533 539.418091,142.037659 535.231079,138.789398 
	C531.297974,135.738113 527.795166,132.106613 523.739746,129.245285 
	C519.437988,126.210068 514.716187,126.261696 510.160553,129.160446 
	C508.188904,130.415024 506.787384,131.963242 507.454071,134.487000 
	C508.745911,139.377319 511.750549,142.495148 516.721191,143.956558 
	C522.039673,145.520203 527.520020,145.782104 533.842041,146.657471 
M633.706665,205.984100 
	C635.864014,205.963898 638.021912,205.968369 640.178589,205.917862 
	C643.656494,205.836441 647.271362,205.435135 647.650757,201.102615 
	C648.032166,196.746552 645.410217,193.788910 641.358582,192.634445 
	C633.599487,190.423630 617.302246,196.448273 613.462158,203.751022 
	C620.158386,203.387878 626.419067,205.037964 633.706665,205.984100 
M686.677307,557.295410 
	C686.550049,556.886841 686.422729,556.478210 686.295532,556.069702 
	C686.189514,556.191772 686.030518,556.296936 685.985413,556.438416 
	C685.392334,558.296692 684.545227,560.125061 685.193542,562.353760 
	C698.899170,564.551636 709.088684,555.368347 721.356445,552.296143 
	C717.271301,545.476074 713.285645,543.728821 706.682190,545.735901 
	C699.907776,547.794922 693.527466,550.554871 690.115967,557.484497 
	C689.307983,559.125732 688.144348,560.448730 686.677307,557.295410 
M643.448853,632.575684 
	C642.855408,628.978516 642.297119,625.375122 641.660400,621.785645 
	C640.676392,616.238220 639.768433,610.672302 638.578979,605.168091 
	C637.764221,601.398254 631.953979,597.210999 629.281921,598.528625 
	C625.388855,600.448242 627.007690,604.270691 627.747375,606.916138 
	C630.309082,616.078308 634.759460,624.425354 640.385803,632.105286 
	C641.018311,632.968628 641.767822,634.632385 643.448853,632.575684 
M639.706970,386.648590 
	C641.939026,386.508392 644.516235,387.474060 646.119141,385.155945 
	C646.873108,384.065521 645.926147,382.900360 645.202637,382.029602 
	C639.367249,375.006866 632.408142,370.061279 622.792725,370.160278 
	C618.426025,370.205292 617.570801,371.565125 619.201355,375.662750 
	C619.908264,377.439301 621.212708,378.642426 622.607727,379.834106 
	C627.307068,383.848175 632.879150,385.723511 639.706970,386.648590 
M656.684937,583.533264 
	C656.338257,580.737671 655.958435,577.945618 655.653381,575.145508 
	C655.275940,571.680359 655.244202,568.149414 654.538879,564.755920 
	C653.824646,561.320129 648.386780,558.205872 645.490845,559.594177 
	C641.184631,561.658630 643.568420,564.938110 644.763123,567.637268 
	C646.778320,572.189941 649.049805,576.633301 651.322205,581.066895 
	C653.550537,585.414429 655.659729,589.854309 659.688660,594.773438 
	C658.480896,590.372681 657.656860,587.370178 656.684937,583.533264 
M573.986938,210.354630 
	C578.831543,210.600311 583.676208,210.845993 588.911011,211.111465 
	C587.585999,209.316681 586.116638,208.666687 584.701172,208.536911 
	C573.389771,207.499802 562.504639,204.224045 551.358948,202.371796 
	C547.366821,201.708374 543.068665,201.565735 539.856201,205.503265 
	C542.668457,208.516602 546.221680,208.516953 549.651306,208.747253 
	C557.453552,209.271194 565.261230,209.714645 573.986938,210.354630 
M642.647278,688.082825 
	C645.033508,684.966003 644.645203,681.270874 644.653625,677.723877 
	C644.669312,671.132935 640.341370,666.014648 633.934753,664.630005 
	C631.493652,664.102356 629.387085,664.632996 630.511414,667.419800 
	C633.460388,674.729431 635.854309,682.434998 642.647278,688.082825 
M714.904236,599.051086 
	C705.419617,594.304688 682.637085,594.035889 675.585571,598.814148 
	C686.848389,600.446228 697.806213,602.148071 708.885742,602.821228 
	C711.438354,602.976318 714.356018,603.202759 714.904236,599.051086 
M675.511230,635.529785 
	C669.717224,635.474548 663.710999,633.993958 657.491211,638.510071 
	C665.594177,639.832275 672.680115,640.676819 679.961853,639.215454 
	C679.578003,636.462219 677.808228,636.236267 675.511230,635.529785 
z"/>
<path fill="#000000" opacity="1.000000" stroke="none" 
	d="
M551.254272,598.891113 
	C551.573608,603.163452 551.887329,606.959351 552.265991,611.540405 
	C553.315369,605.898865 554.080505,601.040833 555.166565,596.255615 
	C555.720825,593.813904 556.873169,590.996399 559.881226,591.337646 
	C562.611267,591.647339 563.929504,594.202759 564.001648,596.899780 
	C564.307007,608.326599 565.986023,619.943787 558.544983,630.192383 
	C556.467468,633.053772 556.257385,636.749146 556.435120,640.311340 
	C557.630981,664.266174 558.578186,688.230713 557.080444,712.200928 
	C556.343323,723.998230 555.085266,735.782288 552.142822,747.259216 
	C546.098511,770.834473 546.774597,794.829163 547.505676,818.799622 
	C548.004272,835.147461 546.938843,851.394836 545.714600,867.657898 
	C544.191467,887.889954 541.714966,908.038086 541.197754,928.362183 
	C540.714111,947.367859 546.382629,965.152771 550.874146,983.204102 
	C552.038757,987.884705 553.372009,992.523743 554.660156,997.172913 
	C555.155945,998.962280 555.499268,1000.773376 555.100464,1002.598267 
	C554.742737,1004.235168 554.189941,1006.112549 552.327393,1006.371460 
	C550.218689,1006.664612 549.524963,1004.647278 549.150757,1003.116394 
	C542.965210,977.810181 533.312561,953.157776 534.938904,926.381226 
	C536.030273,908.412170 538.671265,890.634094 541.181519,872.841064 
	C543.820801,854.133606 544.341064,835.365356 543.362366,816.534363 
	C542.036133,791.016113 541.997742,765.671692 548.418152,740.583557 
	C553.274841,721.606201 553.251282,701.982239 553.708801,682.506226 
	C554.084473,666.512329 554.115112,650.552002 549.867554,634.882141 
	C547.418335,625.846558 543.386597,618.347107 534.999451,613.345642 
	C528.658813,609.564697 525.499939,600.547852 527.377991,594.165955 
	C528.720459,589.604004 531.615662,588.100525 536.165222,589.590271 
	C541.859436,591.454834 544.621460,596.196045 546.826111,600.422119 
	C546.826111,592.736572 546.854736,584.513428 546.811523,576.290588 
	C546.794922,573.136658 544.489990,571.654785 542.075439,570.399658 
	C537.345703,567.940979 532.611328,565.486572 527.815125,563.161865 
	C522.062012,560.373291 518.332703,555.924500 516.608948,549.825684 
	C515.522644,545.982178 513.468994,543.083313 510.133392,540.715088 
	C505.757599,537.608337 504.806488,531.527832 507.483032,527.331665 
	C509.746918,523.782410 513.613281,523.178040 519.101196,525.476379 
	C521.910339,526.652832 524.682373,528.108215 526.421997,530.553833 
	C532.945801,539.725647 541.074890,547.727844 546.784302,558.318909 
	C546.784302,548.446228 546.746887,539.058716 546.802246,529.671875 
	C546.825317,525.760559 543.719971,525.669922 541.267456,525.256714 
	C532.950684,523.855774 526.246460,520.057678 521.557495,512.935242 
	C518.767456,508.697266 516.921387,504.083527 516.227966,499.059937 
	C515.764282,495.700623 516.841919,492.703735 519.437988,490.565552 
	C522.186523,488.301758 525.348938,488.608459 528.389221,490.095001 
	C533.820984,492.750854 537.372681,497.401764 540.895569,502.071320 
	C542.851746,504.664307 544.832153,507.238983 547.220886,509.615082 
	C547.281128,499.959839 545.558899,490.726410 542.838257,481.673920 
	C542.146545,479.372223 539.976379,478.652985 537.786194,478.087799 
	C530.644592,476.244934 523.286072,476.151245 516.026794,475.262390 
	C514.214294,475.040466 512.376160,474.902344 510.605438,474.488098 
	C505.311523,473.249451 503.132141,470.413177 503.755219,465.794220 
	C504.354919,461.348328 507.654449,458.841003 512.853455,459.516693 
	C522.051453,460.712097 531.424377,461.282440 540.825745,466.455902 
	C538.790283,461.385925 537.132141,457.302887 535.513306,453.204285 
	C534.671387,451.072815 532.973083,450.360687 530.866882,449.979370 
	C517.010864,447.470917 507.510193,439.261200 501.223297,427.001526 
	C496.206299,417.218170 491.020752,407.469482 489.981720,396.235199 
	C489.352386,389.430664 492.042236,386.995544 498.725006,388.164032 
	C505.893066,389.417450 511.063995,393.450287 515.139404,399.372314 
	C525.190308,413.977417 533.358337,429.596069 540.651672,445.709137 
	C541.583252,447.767334 542.359558,449.944153 544.143311,451.695251 
	C545.661682,446.919678 547.050903,442.348938 548.571716,437.822418 
	C550.185669,433.018372 553.766052,430.414734 558.669861,430.191772 
	C563.577332,429.968628 565.937866,433.482483 567.754150,437.494232 
	C572.145874,447.194977 571.448425,456.275482 564.530579,464.586945 
	C561.123108,468.680878 557.691467,472.765472 554.064758,476.662537 
	C551.352661,479.576752 550.131409,482.596863 551.175049,486.625671 
	C552.242065,490.744324 552.845276,494.983185 553.736877,499.612793 
	C557.333923,497.810455 559.142883,494.945007 561.434082,492.671326 
	C564.647644,489.482422 568.278503,487.624908 572.670959,489.516144 
	C577.070618,491.410492 577.469971,495.528229 577.232971,499.690674 
	C576.511597,512.358093 570.073975,520.882568 558.064087,524.918396 
	C555.519043,525.773682 553.446716,526.824158 553.092346,529.792664 
	C552.855408,531.777222 552.489014,533.751099 552.349060,535.741638 
	C551.920837,541.832764 551.574036,547.929688 551.112915,555.354309 
	C554.549316,549.916748 557.637329,545.869934 561.280273,542.307007 
	C566.789307,536.919006 571.669678,537.867065 574.989136,544.866699 
	C578.505432,552.281677 577.065918,559.623047 570.168152,562.398987 
	C554.613464,568.658936 551.335327,581.253174 551.212280,595.915955 
	C551.205322,596.748718 551.235718,597.581787 551.254272,598.891113 
M529.936401,436.329620 
	C529.582031,435.228912 529.309875,434.093384 528.860596,433.032867 
	C523.984375,421.521362 516.540588,411.438995 510.628693,400.497040 
	C508.654236,396.842590 505.075989,394.359894 501.158356,392.689697 
	C498.718506,391.649536 495.961426,390.134125 493.649292,392.120850 
	C491.049133,394.355072 492.298798,397.522278 493.520538,399.977997 
	C496.546356,406.059967 499.784943,412.049927 503.224365,417.908783 
	C507.799652,425.702423 514.532654,431.328918 522.395996,435.578217 
	C524.601257,436.769958 526.963013,438.476807 529.936401,436.329620 
M556.865479,466.340149 
	C558.452148,464.222748 560.105408,462.151520 561.611816,459.978455 
	C564.949829,455.163116 566.966248,450.094757 564.625793,444.142883 
	C563.689636,441.762329 562.782715,439.242950 560.054871,438.719177 
	C557.374084,438.204468 555.335571,439.994904 553.694397,441.909698 
	C548.881104,447.525543 547.309692,465.105560 550.993286,471.801727 
	C553.376404,470.788025 554.654175,468.563354 556.865479,466.340149 
M527.417847,554.132263 
	C531.725464,555.888306 536.033142,557.644348 541.462830,559.857727 
	C539.750854,557.112793 538.855591,555.520813 537.812378,554.032593 
	C534.083740,548.713745 530.378418,543.375793 526.519653,538.151855 
	C523.899414,534.604675 520.294861,532.168396 516.438477,530.112183 
	C514.190979,528.913818 511.949768,528.448120 510.264130,530.939514 
	C508.410797,533.678772 510.193115,535.356689 512.356689,536.561646 
	C516.056885,538.622375 518.332336,541.748718 519.858948,545.580933 
	C521.248169,549.068298 523.233398,552.090881 527.417847,554.132263 
M538.540771,506.942535 
	C536.976135,505.228790 535.503540,503.418060 533.824829,501.824493 
	C531.447632,499.567871 529.541870,496.680969 526.140259,495.704010 
	C524.436157,495.214539 522.830933,495.447632 521.442932,496.563904 
	C520.101685,497.642578 520.715759,498.880615 521.210083,500.159698 
	C525.020996,510.020966 534.476318,516.567627 545.745239,516.834534 
	C545.331848,512.294128 541.284912,510.481110 538.540771,506.942535 
M557.051392,516.091370 
	C564.297119,514.390381 569.139404,510.037750 571.334839,502.911377 
	C571.912659,501.035828 572.486816,498.884827 570.610962,497.353790 
	C568.652771,495.755646 566.573181,496.444885 564.532654,497.446045 
	C558.573669,500.369598 554.059021,507.739441 554.360657,514.076538 
	C554.424438,515.417175 554.772400,516.375305 557.051392,516.091370 
M555.941467,564.604675 
	C559.264343,560.403992 563.738464,558.112122 568.786987,556.658752 
	C571.005676,556.020020 572.567993,554.477966 572.552185,552.004150 
	C572.538879,549.919678 571.579346,548.112183 569.806702,546.989441 
	C567.662231,545.631104 565.989319,547.158447 564.485474,548.365295 
	C562.819885,549.702026 560.984131,551.084656 559.925049,552.865112 
	C557.724915,556.563904 554.029785,559.839783 555.941467,564.604675 
M538.174133,598.306213 
	C536.077332,597.416077 534.223572,593.928467 531.850220,596.320679 
	C529.919128,598.267090 531.014709,601.454407 532.274841,603.824158 
	C534.917175,608.793457 540.073486,610.564392 544.723511,613.178528 
	C543.539734,607.931213 542.939209,602.603821 538.174133,598.306213 
M525.827148,467.671722 
	C519.902161,467.418243 514.101440,463.617950 507.964294,467.217560 
	C517.127808,472.331268 527.295532,471.691437 537.234802,472.538177 
	C534.181580,469.733643 530.379272,468.872559 525.827148,467.671722 
M559.826294,610.262512 
	C559.826294,607.206238 559.826294,604.149902 559.826294,601.093628 
	C556.799255,606.913269 557.271606,612.984131 557.819458,619.084473 
	C559.022217,616.555298 559.738647,613.935547 559.826294,610.262512 
z"/>
</svg>