<svg version="1.1" id="Layer_1" xmlns="http://www.w3.org/2000/svg" xmlns:xlink="http://www.w3.org/1999/xlink" x="0px" y="0px"
	 width="100%" viewBox="0 0 608 960" enable-background="new 0 0 608 960" xml:space="preserve">
<path fill="#000000" opacity="1.000000" stroke="none" 
	d="
M542.663147,350.886749 
	C547.111084,352.598175 550.962952,354.589417 554.126404,357.642395 
	C558.239929,361.612305 558.284668,364.935059 553.894653,368.597412 
	C550.177368,371.698425 548.186462,375.376648 547.998047,380.183960 
	C547.770935,385.981140 546.084778,391.224060 542.340759,395.849335 
	C538.708801,400.336090 534.156128,402.131531 528.652771,401.097656 
	C518.934814,399.272064 510.444061,395.180969 503.521851,387.772552 
	C491.491394,374.897156 476.251282,366.540558 460.808105,358.606476 
	C454.237976,355.231018 447.796112,351.747040 443.023834,345.969818 
	C441.010956,343.533051 439.438873,344.023499 437.149292,345.522491 
	C423.892151,354.201935 413.115387,365.194244 406.508331,379.672150 
	C399.100891,395.903931 390.447693,411.097382 375.382141,422.328979 
	C387.511871,438.955963 389.693176,458.748871 394.542267,478.476440 
	C399.247192,472.649292 402.218903,466.903229 405.631622,461.456818 
	C408.959198,456.146240 409.764130,455.846497 415.057587,458.657074 
	C417.453003,454.695587 418.819397,450.155670 421.748260,446.481903 
	C423.689667,444.046722 425.739563,441.883698 429.257935,442.630310 
	C432.687347,443.358002 434.347595,446.068390 434.879456,449.023041 
	C438.256592,467.783722 437.757446,485.684540 422.098907,499.649628 
	C410.070618,510.377106 404.945770,524.675049 400.824219,540.182617 
	C405.758545,539.339661 409.499115,537.924438 411.023132,532.842102 
	C412.646851,527.427368 414.519531,522.091431 417.738037,517.314087 
	C425.333527,506.040009 436.190002,502.597626 450.798859,507.254242 
	C452.314758,503.362579 452.574432,499.277954 452.654053,495.172882 
	C452.747528,490.351318 452.526459,485.531769 453.670746,480.760651 
	C454.475616,477.404633 456.396027,475.308105 459.741333,475.105286 
	C462.922272,474.912384 464.980713,476.882233 466.103424,479.798950 
	C467.388397,483.137360 467.566284,486.623413 467.343872,490.133972 
	C466.830780,498.232971 467.652039,506.204651 470.982727,513.605713 
	C474.945862,522.412048 473.183228,530.484497 468.957977,538.465698 
	C463.232452,549.280762 454.086456,556.250732 443.116364,561.031738 
	C430.599579,566.486816 417.953796,571.648376 405.476379,577.190369 
	C395.144989,581.779114 385.505341,587.877625 374.647339,591.340881 
	C372.412567,592.053772 371.103058,593.852295 370.413513,595.978760 
	C368.218262,602.748352 363.919800,608.110596 358.426056,612.254578 
	C343.092194,623.821045 330.310822,638.290039 315.038696,649.913818 
	C306.676025,656.278748 298.261780,662.413513 288.646515,666.917114 
	C273.536743,673.994141 268.153534,687.576050 266.348755,702.957153 
	C264.748169,716.597595 267.612823,730.132446 268.052734,743.732178 
	C268.537689,758.723572 268.645294,773.718872 267.766479,788.704285 
	C267.678741,790.199951 267.444061,791.690857 267.423920,793.185974 
	C267.041840,821.507751 266.231018,849.833557 266.467010,878.150574 
	C266.640289,898.942444 268.192169,919.722717 269.126251,940.508423 
	C269.186096,941.840149 269.351349,943.185730 269.229340,944.502808 
	C269.032349,946.629272 270.275238,949.686218 266.787567,950.114380 
	C263.766510,950.485413 260.484711,951.222229 258.340088,947.661438 
	C253.237366,939.188965 249.246353,930.814697 249.398788,920.210815 
	C249.703201,899.034973 251.953354,878.049438 253.393433,856.979614 
	C254.515808,840.557800 255.544952,824.098877 254.035477,807.581055 
	C252.728851,793.282654 253.856888,778.939148 254.919876,764.661438 
	C256.707977,740.644958 256.551361,716.903748 249.463577,693.511902 
	C245.313156,679.814270 241.714569,665.957336 236.512482,652.594421 
	C233.355103,644.483887 228.537964,637.651367 221.459808,632.471008 
	C211.577759,625.238647 206.690506,614.244568 200.117599,604.453857 
	C190.161972,589.624390 183.242691,573.551086 178.104568,556.554443 
	C176.112534,549.964844 174.720612,543.353638 174.720398,536.466858 
	C174.720337,534.457703 174.906906,532.299927 172.760422,531.171448 
	C164.017593,526.575012 159.894150,519.096069 159.446976,508.989227 
	C156.925415,511.210999 156.022644,513.731079 154.808472,516.018372 
	C143.889648,536.588257 126.183861,546.496338 103.541878,548.156677 
	C97.615295,548.591309 91.611206,549.037659 85.598801,548.486023 
	C81.428795,548.103455 79.410431,546.101624 78.574974,542.103516 
	C76.537849,532.354736 75.795891,522.337524 72.391624,512.868042 
	C68.883308,503.109009 63.776299,494.107605 59.249931,484.836334 
	C54.193111,474.478546 53.385124,463.807068 56.106186,452.760040 
	C58.909698,441.378296 65.395447,433.770142 77.910713,431.531006 
	C75.430809,430.414734 72.963676,429.269043 70.468781,428.187378 
	C59.881741,423.597290 50.064945,417.627869 40.360329,411.450470 
	C35.815289,408.557373 32.856606,404.634064 31.279295,399.390289 
	C27.827833,387.915833 24.034512,376.544678 20.444727,365.111237 
	C18.332989,358.385406 17.403006,351.480621 17.768133,344.427399 
	C18.183413,336.405457 21.188454,333.652924 28.868685,331.423126 
	C48.544113,325.710754 66.824966,330.694397 84.669426,338.282013 
	C92.468567,341.598236 97.377487,348.888611 103.260094,354.750122 
	C104.180573,355.667297 104.963455,356.722504 106.054184,357.602356 
	C98.856064,342.724335 96.984413,326.866547 96.950294,310.678436 
	C96.944366,307.868866 97.248131,304.999481 97.862244,302.259338 
	C99.449928,295.175232 105.357460,293.012329 111.016724,297.580597 
	C118.188850,303.370056 123.925606,310.579651 129.628723,317.747223 
	C134.477859,323.841553 140.519943,327.873688 147.921829,329.966125 
	C149.840408,328.620361 149.537918,326.678406 149.663605,324.917175 
	C151.124390,304.448486 155.110870,284.734222 166.351151,267.061890 
	C168.935577,262.998566 170.803879,258.484253 173.316666,254.369843 
	C177.554977,247.429947 182.929871,246.353928 189.731339,250.882507 
	C194.767731,254.235886 198.792648,258.723785 202.967300,263.026428 
	C207.155167,267.342651 211.295685,271.856140 216.637436,274.631439 
	C232.561249,282.904633 239.683472,296.996460 243.365463,313.582764 
	C246.232559,326.498138 243.760635,338.967712 240.842041,351.532349 
	C237.840683,364.453308 233.698212,377.230347 234.313950,390.774445 
	C234.412048,392.932190 234.339294,395.099426 235.606369,397.709229 
	C237.260712,394.453064 238.471283,391.392883 240.238983,388.698090 
	C254.676331,366.688934 269.124847,344.702881 289.638489,327.561310 
	C298.277771,320.342163 304.870392,311.278748 310.896118,301.831177 
	C313.069244,298.424011 315.302765,295.142334 320.149994,293.606781 
	C316.274628,292.107819 313.050446,291.270325 310.240479,289.694275 
	C302.876129,285.563751 298.029419,279.363434 296.916504,270.839142 
	C296.513184,267.749878 295.251678,265.962799 292.424316,264.994202 
	C283.314758,261.873474 275.607361,256.318451 267.783844,250.913116 
	C252.855576,240.599060 236.756332,232.867752 218.909088,228.939972 
	C208.920639,226.741760 199.143463,227.506912 189.285110,229.669830 
	C182.797546,231.093201 176.219910,232.145203 169.647736,233.131180 
	C164.407150,233.917404 159.363800,232.917206 154.626831,230.514557 
	C147.332825,226.814972 140.102936,222.915451 133.827759,217.668854 
	C126.598160,211.624268 118.807495,206.628220 110.177818,202.922058 
	C97.469955,197.464447 90.069740,187.972916 88.287300,174.225662 
	C87.177193,165.663818 84.948166,157.244644 84.716454,148.581329 
	C84.545326,142.182968 87.894608,140.266937 93.669334,143.108994 
	C96.652191,144.577026 98.695343,146.970291 100.098709,149.867523 
	C105.936096,161.918579 114.341187,172.378281 121.095818,183.865967 
	C124.827553,190.212555 129.901321,195.549805 135.679550,200.191605 
	C140.518066,204.078476 145.438934,208.296021 147.670990,214.059769 
	C151.035202,222.747009 158.226028,223.403336 165.647766,224.758728 
	C180.202408,227.416763 193.641159,222.271439 207.280914,219.010773 
	C217.541122,216.557999 226.732834,217.814590 235.355133,223.696136 
	C244.977661,230.259933 254.558807,236.884399 264.832092,242.886353 
	C264.071045,241.773010 263.409821,240.573425 262.533661,239.559570 
	C252.942078,228.460724 249.628189,214.096375 242.757751,201.575974 
	C231.326080,180.743332 236.895386,181.312073 210.248779,168.987228 
	C200.257736,164.366074 191.880875,156.934021 182.446701,151.281586 
	C172.443298,145.288116 162.483658,139.221634 152.492401,133.207809 
	C147.865128,130.422607 143.723572,127.108673 140.894791,122.422829 
	C138.600052,118.621597 136.942474,114.707825 139.137283,110.184540 
	C139.617737,109.194374 139.627258,107.926414 139.668106,106.779778 
	C140.137909,93.599419 147.486328,87.071091 160.640427,88.402870 
	C165.255966,88.870155 169.829391,89.759407 174.418900,90.476151 
	C178.983582,91.189018 182.631561,93.944092 187.023773,96.576637 
	C187.622894,92.229050 188.152512,88.387741 188.681519,84.546341 
	C189.207672,80.725731 190.357468,77.062637 191.804489,73.521255 
	C193.953964,68.260620 197.246704,66.864502 202.555710,68.777367 
	C208.655823,70.975281 213.740295,74.601440 217.846832,80.655952 
	C220.480637,73.465370 219.416794,66.581505 220.628159,60.030281 
	C221.410950,55.796787 221.339645,51.388214 223.136307,47.371799 
	C224.172867,45.054527 225.469818,42.881920 228.451599,42.700966 
	C231.569489,42.511745 233.398010,44.443241 234.818314,46.785835 
	C236.649048,49.805328 237.435776,53.249508 238.378204,56.613873 
	C240.921021,65.691269 244.266434,74.323235 251.367950,80.985474 
	C253.347916,82.842957 254.508209,85.267624 255.354507,87.829025 
	C258.468781,97.254562 259.775696,106.758987 258.631317,116.795448 
	C257.462799,127.043312 256.952637,137.669266 260.476929,147.491821 
	C265.685120,162.007553 264.692841,176.301666 260.935089,190.657166 
	C257.958008,202.030273 259.610229,212.267883 266.097229,222.058929 
	C270.228943,228.295090 273.658478,234.994308 277.455536,241.454941 
	C281.766846,248.790649 289.009460,252.682358 295.546509,257.270599 
	C296.146454,256.810638 296.558563,256.662567 296.628540,256.417023 
	C300.673187,242.218674 311.151001,240.206284 323.944061,243.969284 
	C331.237854,246.114700 337.499542,250.275223 343.504456,254.834335 
	C345.190796,256.114655 346.713501,257.763702 349.326843,257.892731 
	C351.906067,253.894577 350.697083,249.179214 351.390350,244.889389 
	C352.825317,236.010056 355.599731,227.807632 360.424561,220.258102 
	C364.092499,214.518829 366.094574,208.479294 365.620880,201.423447 
	C364.843689,189.847122 369.054962,179.204330 372.899902,168.544769 
	C375.427612,161.537048 378.956573,154.811920 378.704926,147.008408 
	C378.542938,141.984924 376.405396,139.399521 372.046570,136.171524 
	C360.460999,127.591667 347.665100,120.071053 339.469452,107.537697 
	C337.230011,104.112892 335.900757,100.210236 335.820129,96.259338 
	C335.689026,89.833984 333.536865,84.147835 330.519623,78.760490 
	C321.975342,63.504486 322.761017,47.860241 328.109222,31.939699 
	C328.212189,31.633118 328.407043,31.330015 328.634888,31.100672 
	C328.852814,30.881363 329.169830,30.760530 330.167847,30.161615 
	C329.010040,41.153191 324.982483,51.623016 329.295563,63.747162 
	C329.471313,55.300320 330.356110,48.382408 331.672546,41.525261 
	C331.921204,40.229988 332.176544,38.918327 332.618805,37.682190 
	C333.221802,35.996620 334.381470,34.793602 336.323822,34.906292 
	C338.030182,35.005280 338.841248,36.264988 339.549164,37.673691 
	C340.661530,39.887104 340.143677,42.256985 340.373657,44.553505 
	C343.655182,34.637138 339.514862,21.694374 332.907196,21.192259 
	C335.062103,17.408060 337.739563,17.270744 340.431549,21.323040 
	C345.620972,29.134859 347.044861,37.861744 345.952057,47.111458 
	C344.968536,55.436146 340.427643,62.890129 339.903107,71.249985 
	C339.407074,79.154655 339.202545,87.119934 339.597351,95.022209 
	C339.832184,99.722214 342.480560,103.812912 345.839905,107.259529 
	C351.935791,113.513824 359.131470,118.352127 366.338013,123.161385 
	C369.359894,125.178009 373.098022,125.464714 376.454071,125.452957 
	C390.199677,125.404793 390.885773,133.833054 390.807404,143.833984 
	C390.751282,150.998062 387.392792,157.303680 384.904053,163.820038 
	C382.291016,170.661804 379.474579,177.448776 377.310089,184.434174 
	C372.916962,198.611969 378.371643,205.982468 393.221039,206.684372 
	C405.641815,207.271484 416.364014,202.524155 426.415161,196.013092 
	C441.201172,186.434814 451.237183,172.421249 460.340149,157.823593 
	C469.021698,143.901718 477.925415,130.270081 490.748901,119.731934 
	C497.187286,114.440956 503.705902,109.231964 512.100403,107.208199 
	C524.591492,104.196838 531.298218,110.886642 528.230774,123.362503 
	C527.508667,126.299606 526.564087,129.249710 524.710938,131.587082 
	C513.825562,145.316559 502.745697,158.883209 486.863098,167.328293 
	C482.435181,169.682693 477.811218,171.487747 472.858521,172.495560 
	C469.400848,173.199127 466.030182,173.891785 462.671844,171.697952 
	C459.738281,175.715164 457.016388,179.442505 454.379120,183.053986 
	C454.761658,183.669556 454.870514,184.101257 455.110443,184.193985 
	C466.512848,188.602158 471.792450,199.077820 468.457672,210.932266 
	C466.037964,219.533829 460.843414,226.401840 454.544891,232.514603 
	C446.295502,240.520737 438.292358,248.730942 432.573578,259.234772 
	C433.947113,258.107025 435.371887,257.035187 436.680634,255.836670 
	C438.153870,254.487518 439.615753,253.104630 440.918640,251.594955 
	C444.325623,247.647247 447.794098,244.203812 452.653656,248.616516 
	C454.901367,247.868042 454.762817,246.299515 455.071777,245.094254 
	C457.535919,235.481384 464.181305,230.334564 473.332001,227.823730 
	C477.613617,226.648926 481.505432,227.631744 484.095673,231.131607 
	C490.558502,239.863937 499.148499,246.157913 507.661865,252.583420 
	C511.391602,255.398483 515.055786,258.267090 517.506287,262.394348 
	C521.393066,268.940674 519.947388,273.976776 512.988953,276.897308 
	C508.319824,278.856995 504.110779,281.282104 500.640594,286.030182 
	C507.138062,286.368958 512.412415,284.094269 517.614380,281.911285 
	C523.762634,279.331177 529.642090,276.170868 535.069153,272.240448 
	C542.579773,266.801086 550.848938,264.932861 560.104858,266.060242 
	C566.174622,266.799591 572.375183,266.408691 578.507812,266.713104 
	C581.146790,266.844116 583.844849,267.167694 586.372742,267.899200 
	C594.773132,270.329834 598.486389,278.571411 594.855957,286.532928 
	C592.972046,290.664337 590.024780,294.110321 587.174805,297.586517 
	C583.475708,302.098419 579.744385,306.582001 576.728760,311.596558 
	C573.719360,316.600708 569.621704,320.210663 564.231506,322.642853 
	C557.251465,325.792358 550.259705,329.029846 543.669617,332.904205 
	C532.274597,339.603516 520.552979,340.198639 508.046509,336.864746 
	C497.773987,334.126343 487.305725,332.114410 476.903351,329.877502 
	C474.969696,329.461731 472.939514,329.432831 470.949005,329.362732 
	C469.288849,329.304230 467.268188,329.195953 466.797638,331.236877 
	C466.331970,333.256653 468.296814,333.964325 469.670746,334.825500 
	C480.394501,341.547150 492.586700,343.649200 504.742676,345.602448 
	C517.208496,347.605469 529.759705,349.077484 542.663147,350.886749 
M496.319916,250.590958 
	C497.523743,252.558167 498.746429,254.383362 500.721161,255.838715 
	C505.816040,259.593628 507.192413,265.391998 504.869202,271.281219 
	C504.367767,272.552307 502.883667,273.703186 504.177399,275.362640 
	C506.289673,275.651825 507.977539,274.411621 509.776398,273.709290 
	C516.706116,271.003693 517.314880,268.513763 512.185974,263.017822 
	C507.425110,257.916321 501.647583,254.016373 495.617188,249.458023 
	C490.701294,244.969009 485.994965,240.282715 482.101379,234.851562 
	C480.195435,232.192978 477.866547,230.745758 474.440887,231.568665 
	C466.407349,233.498489 459.645966,240.741653 458.507751,248.925659 
	C457.982025,252.705978 458.465302,256.181030 462.358368,258.108978 
	C465.599854,256.304962 467.582123,253.904739 468.632172,250.493652 
	C471.160706,242.279373 483.483398,239.458862 489.422668,245.764481 
	C491.333435,247.793091 493.418915,249.193695 496.319916,250.590958 
M27.394300,371.170624 
	C29.111404,376.559540 31.474594,381.838196 32.416836,387.359344 
	C34.674973,400.591064 42.292015,408.850037 54.177616,414.381927 
	C64.546181,419.207733 73.877518,426.263550 85.393768,428.605225 
	C93.244614,430.201599 101.268570,430.142487 109.171028,431.180084 
	C124.023918,433.130249 138.227798,438.196411 153.016266,440.485931 
	C158.851776,441.389435 164.554550,442.807343 168.893295,447.067902 
	C171.953537,450.072968 175.738281,453.754700 172.829193,458.268585 
	C169.874741,462.852875 164.952713,460.951843 161.072662,459.079803 
	C155.385590,456.335907 149.819534,453.258636 144.490768,449.869293 
	C123.895340,436.769531 101.640205,434.676971 78.228180,439.250488 
	C71.379601,440.588379 66.977318,444.402435 64.381996,450.801331 
	C59.521896,462.784058 60.914097,474.207489 66.912971,485.366150 
	C75.997276,502.264099 81.832222,520.166626 83.313606,539.370667 
	C83.553673,542.482788 85.024124,543.815735 88.104050,543.747681 
	C92.432938,543.651855 96.771126,543.844849 101.094711,543.662354 
	C123.234245,542.728394 140.226578,533.354797 151.189240,513.575745 
	C159.923599,497.816986 165.938889,480.824738 173.983917,464.759125 
	C178.360565,456.019135 179.337112,445.789795 185.618500,437.837250 
	C187.346542,435.649445 185.283478,434.581635 184.012924,433.375702 
	C177.568710,427.259308 172.309631,420.547455 172.644241,410.993683 
	C172.707535,409.186554 171.718338,408.178467 170.095230,407.802277 
	C159.556870,405.359375 150.702103,399.140442 140.995026,394.836273 
	C135.444458,392.375153 130.873459,388.559509 126.772881,384.052399 
	C122.186356,379.011169 118.330513,373.140594 112.721733,369.220123 
	C105.545029,364.203674 99.383080,358.229340 93.558334,351.792419 
	C90.659439,348.588837 87.857056,345.181549 83.885124,343.226074 
	C66.845917,334.837158 49.167446,331.333435 30.322586,336.074219 
	C25.482943,337.291718 23.388371,339.999146 23.296959,344.876190 
	C23.132998,353.623962 24.719158,362.065948 27.394300,371.170624 
M271.606354,635.984009 
	C268.266357,647.171143 269.016907,658.725403 267.704315,671.143127 
	C270.046204,669.457703 271.558014,668.673279 272.682678,667.513428 
	C284.358276,655.473206 297.902771,645.833496 311.888519,636.741943 
	C323.821747,628.984619 331.676971,617.085266 341.603210,607.287842 
	C346.813629,602.145020 351.666870,596.629272 355.536774,590.347778 
	C357.393311,587.334412 359.103577,584.136719 358.573914,580.523499 
	C357.511932,573.279236 359.387878,566.329590 360.280212,559.285583 
	C362.029785,545.474792 367.526886,532.699036 371.376495,519.464050 
	C373.933350,510.673523 377.935730,502.782745 383.670258,495.702759 
	C384.618988,494.531494 386.253510,493.569977 385.473541,491.103027 
	C358.206604,500.435669 330.324249,502.997437 301.604004,500.232605 
	C300.626923,514.801636 294.238739,527.015442 287.327576,539.016174 
	C283.889221,544.986633 281.039001,551.212097 280.439087,558.115784 
	C279.791504,565.568420 279.410095,573.065247 279.368591,580.545349 
	C279.265656,599.108948 276.864044,617.326294 271.606354,635.984009 
M161.426529,287.893890 
	C158.551346,295.911163 156.414993,304.167999 155.539932,312.595459 
	C154.565811,321.976990 151.567322,331.759094 158.467957,340.416718 
	C159.042084,341.137024 159.110046,342.285431 159.338882,343.252472 
	C161.418884,352.041870 161.811462,361.012482 162.082016,369.983948 
	C162.194885,373.727173 162.314575,377.548981 165.280731,380.165558 
	C170.725952,384.969086 174.953522,390.488708 176.807251,399.202148 
	C178.646439,394.080109 182.597961,392.526794 183.369827,388.255402 
	C184.189529,383.719391 183.777161,377.955719 190.321716,376.493347 
	C190.976547,376.347015 191.388977,374.896149 191.817307,374.004303 
	C192.583923,372.408203 193.727997,371.114929 195.470337,370.884521 
	C197.894043,370.563995 198.616180,368.860168 199.522095,367.008118 
	C201.964340,362.015167 205.817856,361.542084 209.029068,366.028168 
	C212.395859,370.731628 218.288483,373.887543 218.302048,380.731720 
	C218.302887,381.153290 218.691849,381.803223 219.063766,381.960693 
	C225.127075,384.528137 226.495087,390.010132 227.812088,395.625702 
	C228.076431,396.752808 228.606033,398.211853 230.502106,398.515778 
	C230.629593,394.293488 229.293320,390.197876 229.999039,386.083984 
	C231.684082,376.261292 233.334091,366.431152 235.168716,356.635895 
	C237.734650,342.936157 241.659958,329.364594 238.666946,315.205292 
	C235.544235,300.432281 230.059036,287.184387 215.972046,279.283203 
	C212.042358,277.079132 208.707184,273.989197 205.454437,270.868866 
	C200.164505,265.794342 195.086441,260.478058 189.561310,255.675262 
	C183.494751,250.401810 179.885391,251.044617 176.250854,258.159576 
	C171.330673,267.791290 165.445816,276.947235 161.426529,287.893890 
M387.469208,476.785522 
	C384.718323,465.818085 382.628052,454.626099 379.001678,443.956207 
	C376.239563,435.829254 374.440247,426.175110 363.756500,423.548492 
	C362.756744,423.302673 361.764679,422.229889 361.161987,421.289276 
	C355.754822,412.850403 347.484680,412.816376 338.956146,413.679596 
	C321.454712,415.451111 304.736664,420.425140 288.171783,426.093750 
	C277.187347,429.852753 266.434174,434.626068 254.466263,434.614288 
	C253.492081,434.613312 252.097336,434.661835 251.357529,436.239685 
	C256.740265,440.303986 259.408875,446.242798 261.641724,452.352325 
	C264.628479,460.524719 268.759979,468.126312 272.704468,475.833099 
	C276.191010,482.645142 281.454712,487.540863 288.444366,490.535431 
	C295.699310,493.643677 303.336609,495.520111 311.196960,495.655365 
	C335.667938,496.076355 359.586517,492.614044 382.943573,485.119110 
	C387.217377,483.747742 389.451416,482.205872 387.469208,476.785522 
M287.125397,334.621338 
	C267.977753,354.259094 251.221237,375.640015 239.081192,400.399750 
	C235.911453,406.864441 239.469818,418.246521 245.944977,421.614777 
	C250.766327,424.122742 256.054321,425.643463 261.382538,424.503754 
	C272.587921,422.107025 283.879517,419.732849 293.926483,413.778687 
	C317.759094,399.654663 334.989471,379.171783 349.150848,355.853546 
	C351.360901,352.214478 352.975525,347.998840 353.909546,343.835388 
	C359.132111,320.555878 351.543762,304.947968 328.725891,298.517212 
	C320.122681,296.092590 317.995392,297.300293 313.037994,304.870483 
	C305.897705,315.774048 298.104126,326.116699 287.125397,334.621338 
M400.790497,325.592896 
	C393.914764,315.606964 391.112122,304.972504 396.648132,292.557739 
	C381.523804,293.515930 367.449982,294.424683 353.373108,295.283264 
	C350.904633,295.433807 350.090881,297.108337 349.291992,299.041321 
	C348.491638,300.977753 348.696930,302.407227 350.365509,303.871613 
	C362.581665,314.593018 363.058044,328.791718 360.385590,342.978119 
	C357.667664,357.405792 348.818176,368.956726 339.103119,379.672180 
	C332.288666,387.188354 325.405853,394.642548 318.553589,402.124451 
	C321.678528,401.680481 324.354034,400.788666 326.931396,399.670624 
	C331.358887,397.750092 336.212372,397.159973 339.742096,400.335297 
	C347.663544,407.461334 358.115143,408.325226 367.368896,412.844269 
	C368.556915,406.155579 372.980865,401.955994 377.784851,397.972992 
	C385.497467,391.578400 393.007935,384.815460 398.447235,376.403687 
	C406.912445,363.312286 417.603912,352.615875 430.278015,343.735107 
	C430.466217,343.603241 430.455811,343.187927 430.638580,342.559296 
	C425.274628,343.330780 420.349091,342.242676 415.754547,339.641205 
	C409.848633,336.297119 405.145599,331.654449 400.790497,325.592896 
M243.331543,571.589111 
	C245.897964,572.166443 248.711884,571.359070 251.093140,572.967163 
	C254.562820,575.310303 256.899689,573.728210 259.072083,570.858948 
	C263.515198,564.990601 267.263153,558.749084 270.215240,551.990479 
	C275.277100,540.401611 280.611145,528.930908 285.603790,517.312927 
	C288.214142,511.238464 291.593140,505.459320 293.282440,498.920258 
	C291.550812,497.231293 289.432037,496.644348 287.467438,495.811859 
	C278.066071,491.828125 271.036621,485.419861 266.254974,476.289490 
	C262.385925,468.901672 258.929291,461.360596 255.783096,453.652496 
	C254.654251,450.886871 253.480560,448.088409 251.911713,445.563141 
	C247.114410,437.841248 236.862473,435.171204 229.676071,439.580780 
	C224.285477,442.888458 223.910141,445.813904 228.853027,449.972229 
	C233.047745,453.501190 237.672012,456.514832 242.038101,459.845764 
	C252.762711,468.027710 259.672852,477.672516 258.552246,492.404358 
	C257.314026,508.682495 254.041031,514.261780 238.672195,520.364380 
	C230.503708,523.607910 222.028671,526.231323 214.768860,531.515808 
	C211.512909,533.885803 210.641830,535.985291 213.114700,539.727051 
	C221.185806,551.939575 230.769318,562.652527 243.331543,571.589111 
M551.514893,322.920197 
	C558.190918,319.218781 565.560974,316.517212 570.752136,310.598816 
	C577.009705,303.464569 583.076111,296.159882 589.117981,288.840454 
	C591.962646,285.394257 594.230896,281.447845 591.918396,276.963806 
	C589.731750,272.723846 585.428467,272.240540 581.097595,272.248047 
	C571.271545,272.265076 561.445374,272.235565 551.619385,272.194763 
	C548.396423,272.181366 545.235779,272.622711 542.491272,274.323608 
	C528.419617,283.044434 513.915344,290.605743 496.704376,291.819550 
	C497.167297,296.825470 497.955872,301.566345 495.733063,306.194672 
	C492.702454,312.505096 487.395050,315.858704 481.315460,318.576752 
	C478.324432,319.914032 474.670197,320.422424 472.410614,324.206451 
	C485.316467,327.098022 497.721588,330.012421 510.190155,332.623901 
	C518.616455,334.388733 527.107605,334.560516 535.187683,331.009369 
	C540.517090,328.667084 545.645630,325.867920 551.514893,322.920197 
M438.841827,208.338913 
	C440.022430,204.672714 441.777710,201.155457 442.180511,196.556412 
	C436.816254,200.243378 431.935486,203.380920 426.675537,205.862381 
	C413.048981,212.290939 399.276245,217.065491 383.910889,211.860489 
	C380.337311,210.649933 376.819702,207.278992 373.338318,208.356781 
	C369.474457,209.552994 370.602478,215.135162 368.143341,218.099808 
	C367.510651,218.862518 367.090607,219.797501 366.518372,220.615204 
	C364.444550,223.578552 363.753571,226.975998 363.357635,230.474319 
	C362.442352,238.561279 361.745483,246.681976 360.513000,254.720474 
	C359.825317,259.205933 361.207428,260.937622 365.534210,262.576355 
	C379.681610,267.934509 394.838287,265.227173 409.260040,269.030243 
	C409.421570,268.159668 409.669678,267.515045 409.639435,266.883759 
	C408.908051,251.624512 415.028107,239.135284 424.943970,228.016724 
	C430.134186,222.197021 435.637756,216.523575 438.841827,208.338913 
M195.289246,558.080994 
	C192.442429,554.699646 191.572723,550.316895 189.457245,546.567810 
	C187.485809,543.073975 186.152267,539.032471 181.041595,536.785767 
	C188.066940,555.836304 193.353165,574.591003 201.994080,592.053284 
	C206.008011,600.164978 212.476227,606.176697 220.990509,609.739380 
	C224.895035,611.373230 228.380203,613.753967 231.031799,616.999207 
	C240.009232,627.986694 251.500702,637.123169 256.383881,651.213989 
	C253.574966,639.376831 250.520508,627.672791 247.411499,615.983215 
	C244.338745,604.429993 240.434265,593.037598 240.766830,580.843384 
	C240.827316,578.625610 239.173264,577.696045 237.676712,576.651978 
	C228.129593,569.991272 220.495590,561.455200 213.628830,552.162659 
	C211.095047,548.733826 208.539627,545.320923 205.940018,541.828125 
	C202.161942,545.959656 201.917511,546.482239 200.287277,554.209473 
	C199.781281,556.607910 199.275513,558.934998 195.289246,558.080994 
M201.770889,491.700531 
	C204.036316,476.104919 208.093658,460.929901 213.371063,445.783203 
	C209.616898,445.273956 206.668396,444.871796 203.719208,444.474731 
	C201.701401,444.203033 200.059097,444.709076 199.269608,446.774384 
	C194.243698,459.921997 183.737778,469.082520 175.192307,479.641266 
	C169.844650,486.248871 165.306915,493.113861 164.620529,501.778412 
	C163.939438,510.376007 163.375946,519.832092 172.228378,524.447510 
	C182.398071,529.749756 190.351959,536.597107 195.533005,546.749268 
	C195.628052,546.935486 196.111572,546.923462 196.636414,547.063171 
	C200.730072,541.510681 204.341919,535.844849 201.551254,528.394897 
	C200.597275,525.848145 200.686874,523.172791 200.643723,520.504639 
	C200.493042,511.182434 200.605865,501.873322 201.770889,491.700531 
M465.783691,310.318970 
	C470.535217,304.104034 475.523407,298.052460 479.962250,291.621704 
	C483.423828,286.606842 483.111389,285.718018 477.539368,283.095856 
	C467.355499,278.303375 459.812164,270.902863 454.332550,261.172974 
	C452.807220,258.464478 451.116272,255.769455 447.995117,253.558960 
	C440.068726,260.910217 431.664032,267.665375 424.296234,275.559418 
	C422.229187,277.774078 421.644867,280.840240 422.499847,283.562073 
	C425.025940,291.603760 426.489197,300.107941 431.765320,307.068726 
	C436.652863,313.516876 440.440002,320.444885 441.792480,328.564178 
	C442.072632,330.245911 442.116272,332.325195 444.777710,333.421051 
	C452.461365,326.864105 458.856598,318.827393 465.783691,310.318970 
M227.299759,456.255371 
	C224.441010,454.254852 222.344940,451.466644 220.081421,448.733246 
	C210.390457,464.269043 202.504654,517.530701 209.540833,529.463135 
	C219.558319,522.342773 231.267410,518.845276 242.413849,514.099548 
	C246.547989,512.339417 249.914337,509.626068 251.544876,505.353241 
	C257.093201,490.813965 255.157974,476.487000 241.609344,466.655792 
	C237.029144,463.332306 232.447647,460.010620 227.299759,456.255371 
M503.153931,378.323761 
	C508.819366,383.411194 513.676208,389.422485 521.222107,392.214386 
	C533.791626,396.865021 538.892029,394.316376 541.876831,381.025665 
	C543.231201,374.995209 545.300476,369.552307 550.681458,365.930298 
	C553.463074,364.057953 552.815918,362.160339 550.573853,360.345764 
	C547.549377,357.898010 544.124084,356.318665 540.365234,355.289001 
	C533.197388,353.325562 525.782593,354.909821 518.533386,353.394226 
	C500.065582,349.533234 480.673065,348.917450 464.519989,337.300232 
	C463.416534,336.506653 462.036285,335.840698 460.780731,336.619141 
	C456.783966,339.097168 452.261353,340.011261 447.054108,341.078583 
	C451.341949,346.415344 456.823090,348.896210 462.071594,351.552765 
	C476.538849,358.875488 490.439789,367.030487 503.153931,378.323761 
M195.057770,110.541412 
	C197.177597,118.404526 199.269440,126.275322 201.426376,134.128235 
	C203.054565,140.056107 204.210052,146.213455 208.246002,151.147797 
	C217.836182,162.872726 230.837112,170.249481 243.118896,178.639999 
	C239.368988,171.488525 236.693558,164.080109 235.821487,156.282196 
	C234.438019,143.911545 230.970947,132.209778 226.331711,120.739624 
	C222.966217,112.418755 220.024597,103.995300 218.616043,95.001465 
	C217.230087,86.152008 212.079132,79.571182 203.827652,75.673561 
	C200.269318,73.992767 197.885254,74.740746 196.657104,78.792320 
	C193.565247,88.992157 193.057968,99.315056 195.057770,110.541412 
M104.093414,329.603271 
	C106.364189,357.459198 122.804352,374.470367 147.034836,385.353241 
	C150.385437,386.858154 154.969452,389.589447 157.727158,386.759857 
	C160.434402,383.982086 157.663528,379.460602 156.191299,376.064697 
	C151.430328,365.082764 148.365463,353.779053 148.696609,341.729584 
	C148.788361,338.390411 147.441910,336.284760 144.256744,335.444550 
	C134.574158,332.890381 127.689186,326.600067 121.708961,318.948608 
	C118.122368,314.359711 114.285271,309.961151 110.441978,305.581268 
	C109.066620,304.013916 107.744774,302.139587 104.334572,302.037262 
	C101.389992,310.825134 103.707901,319.820679 104.093414,329.603271 
M302.411591,274.019775 
	C305.612854,282.302734 311.788605,286.693665 320.480042,287.639984 
	C338.256989,289.575562 356.045380,288.262878 373.817719,287.563477 
	C381.773865,287.250366 389.718689,286.392273 397.636230,285.495422 
	C400.385620,285.183990 403.704651,285.439423 405.634338,281.832825 
	C400.047272,277.730591 393.796906,276.366547 387.416473,275.346802 
	C376.112305,273.540161 364.605560,273.123718 353.442169,270.330719 
	C349.629669,269.376892 346.221344,267.961243 343.911316,264.522736 
	C337.156067,254.467361 327.117249,249.755478 315.641876,247.713608 
	C310.295837,246.762344 303.933350,249.910690 303.137817,254.559616 
	C302.090729,260.678619 302.429993,267.034882 302.411591,274.019775 
M252.669785,108.599823 
	C252.447205,100.559944 252.349762,92.091797 246.849854,85.852081 
	C239.033142,76.983925 235.762894,66.342163 232.378632,55.552090 
	C231.767349,53.603195 231.750458,51.176926 229.238434,49.888924 
	C226.891220,52.328720 226.552078,55.416737 226.326660,58.539280 
	C226.075317,62.021126 225.730942,65.501244 225.629196,68.988014 
	C225.271774,81.235847 223.778961,93.512802 228.563629,105.442780 
	C231.026276,111.583084 232.541321,118.113251 234.337982,124.508438 
	C236.737717,133.050278 240.011383,141.190811 244.859116,148.655212 
	C248.968887,154.983353 252.192673,161.711990 253.875198,169.098175 
	C254.733765,172.867218 254.171951,176.919098 256.307739,181.557083 
	C258.464783,175.610519 258.912781,170.515228 258.286621,165.172043 
	C257.313110,156.865051 254.426041,149.021820 252.716095,140.895996 
	C250.514267,130.432816 252.788803,119.997986 252.669785,108.599823 
M402.082184,564.514771 
	C399.622833,568.293152 397.163483,572.071594 394.704132,575.849976 
	C399.553009,574.844543 403.676422,573.153381 407.807281,571.480652 
	C421.843201,565.796753 436.058838,560.562012 449.557190,553.588501 
	C463.438690,546.416992 472.023163,529.067078 466.784882,516.632690 
	C463.070587,507.815826 461.334900,498.927460 461.826691,489.439880 
	C461.952332,487.015839 462.498657,484.184692 460.250122,482.067078 
	C458.153046,483.496521 458.390076,485.405853 458.362793,487.188416 
	C458.316956,490.186035 458.404175,493.186188 458.333954,496.182892 
	C457.904053,514.526855 451.625214,528.798889 433.474304,536.856262 
	C420.672607,542.539001 408.994446,550.534912 402.082184,564.514771 
M518.967468,129.415512 
	C520.873535,126.253044 522.456299,122.958092 522.725769,119.207581 
	C523.097168,114.039558 521.250854,112.212631 516.077026,112.318573 
	C513.139038,112.378738 510.574890,113.565605 508.002747,114.729263 
	C485.468201,124.923996 474.850891,144.528717 467.236267,166.480545 
	C467.043701,167.035751 467.212006,167.716125 467.212006,168.466553 
	C471.855621,169.510040 475.585541,167.500351 479.420929,166.032196 
	C497.235596,159.212860 507.554718,144.241318 518.967468,129.415512 
M421.693878,240.196198 
	C414.945282,250.317062 412.373199,261.128418 415.748169,273.240479 
	C418.267181,272.660645 418.587280,270.888702 419.243042,269.439850 
	C421.169250,265.184174 423.591766,261.228668 426.172302,257.340088 
	C432.921356,247.170044 440.934082,238.093399 449.734314,229.681564 
	C454.824432,224.816071 459.280273,219.463852 462.088593,212.945038 
	C464.959473,206.281067 464.942596,199.656647 460.930969,193.407974 
	C457.357208,187.841309 453.176605,187.954407 449.953186,193.639938 
	C448.892883,195.510071 447.835541,197.475739 447.299347,199.533844 
	C443.980225,212.273300 436.978790,222.815247 428.184204,232.353149 
	C426.048584,234.669281 424.133392,237.188614 421.693878,240.196198 
M409.346222,497.659180 
	C406.465027,505.753082 401.474731,512.257935 394.552521,517.311279 
	C387.684052,522.325317 383.454712,529.093384 381.071747,537.188721 
	C378.393494,546.287415 375.383942,555.290222 372.797363,564.413696 
	C371.232880,569.932068 369.979858,575.575867 370.604797,582.796692 
	C372.490326,579.637817 373.774872,577.599976 374.949066,575.500488 
	C383.373627,560.437073 393.911011,546.435486 397.675873,529.054260 
	C400.794647,514.655884 407.715759,502.423157 418.779449,492.467072 
	C425.037903,486.835144 428.734131,479.583038 429.384552,471.029572 
	C429.877991,464.540588 430.123596,458.058624 427.228271,451.295258 
	C423.829102,455.460754 422.303772,459.700684 420.407654,463.736115 
	C415.420807,474.349457 413.373230,485.916168 409.346222,497.659180 
M260.751007,875.500000 
	C260.411530,858.666077 261.417328,841.866272 262.129059,825.062744 
	C263.108673,801.935242 263.993011,778.807617 263.995178,755.655884 
	C263.995331,753.984070 264.348297,751.922668 261.924347,751.172546 
	C260.553375,753.032715 260.510315,755.061829 260.430878,757.004578 
	C260.015778,767.151794 259.359711,777.303833 259.394806,787.452026 
	C259.491058,815.285400 258.348419,843.062500 256.224915,870.803467 
	C254.865463,888.562622 253.290359,906.302429 254.287048,924.149719 
	C254.630035,930.291321 257.302490,935.054199 262.202118,939.471924 
	C261.707489,918.019775 261.228851,897.259888 260.751007,875.500000 
M149.784760,115.808746 
	C147.864761,115.122543 146.424438,112.932159 143.705429,113.951660 
	C142.901276,117.893570 145.341690,120.494461 147.630249,123.020744 
	C151.936066,127.773857 157.537720,130.833054 162.851837,134.257614 
	C177.239502,143.529388 193.096237,150.502289 206.064117,162.022171 
	C207.795242,163.559998 210.047852,164.880035 213.706909,165.193451 
	C206.961014,161.068573 203.215317,155.672348 200.317429,149.593597 
	C198.455444,145.687805 196.336578,141.880447 194.788300,137.853836 
	C190.840958,127.587982 182.705078,123.755936 172.557526,123.106995 
	C164.568558,122.596100 157.195480,120.409660 149.784760,115.808746 
M429.304810,332.581665 
	C426.207764,327.737640 424.564636,322.416321 423.431183,316.786438 
	C422.661133,312.961670 423.477417,308.623230 420.460388,305.381226 
	C417.773285,302.493683 416.025146,299.195435 415.537628,295.226807 
	C415.160309,292.154999 413.499908,291.176666 410.312042,291.630920 
	C403.187592,292.646088 398.804169,297.967560 399.427917,305.393707 
	C400.301941,315.799561 414.688660,332.380737 424.991913,334.548157 
	C426.412018,334.846893 429.037201,336.668274 429.304810,332.581665 
M271.529175,619.004517 
	C273.799011,601.867676 274.628906,584.716736 272.185699,566.713379 
	C268.071411,572.193604 264.159210,576.898865 259.207550,580.591980 
	C257.375977,581.958069 257.149933,583.840332 257.546661,585.969116 
	C259.250671,595.112671 260.635529,604.325684 262.666931,613.394653 
	C264.034668,619.500793 264.723419,625.906677 268.308197,632.337158 
	C269.457550,627.559448 270.386414,623.698303 271.529175,619.004517 
M188.652390,116.998924 
	C188.308975,107.863060 184.664795,100.971214 175.566055,97.816399 
	C169.520187,95.720100 163.291077,94.876854 156.916107,95.389168 
	C152.757462,95.723381 149.215897,97.397476 146.723679,100.875710 
	C145.858292,102.083488 144.841934,103.386986 145.444443,104.983093 
	C146.134216,106.810287 147.877151,106.414116 149.324005,106.420807 
	C154.255463,106.443611 158.755127,108.037514 163.222885,109.940254 
	C170.560333,113.065125 177.959396,116.045860 185.344421,119.058052 
	C186.827240,119.662857 188.672867,120.890121 188.652390,116.998924 
M104.196594,166.315979 
	C101.136383,163.148544 98.314201,159.689850 94.086372,157.637299 
	C90.921921,181.275940 101.336487,195.356766 129.137024,204.251877 
	C119.244415,192.131317 112.842300,178.933502 104.196594,166.315979 
M425.033936,516.530579 
	C420.252655,521.281921 417.030640,526.772888 416.183533,533.750183 
	C429.961609,533.168701 440.653839,526.435852 445.451904,516.227600 
	C447.417664,512.045349 445.889771,510.301788 442.023651,509.632385 
	C435.289612,508.466370 430.173431,511.685089 425.033936,516.530579 
M246.171326,660.545166 
	C248.828232,669.431702 251.485123,678.318237 254.470657,688.303955 
	C255.737411,684.407227 257.953674,682.078369 257.421051,678.602661 
	C253.700348,654.323792 240.821457,635.202332 223.609741,618.553772 
	C221.038528,616.066711 218.122742,613.854858 213.857681,612.401672 
	C216.181549,617.449890 219.094513,621.297424 222.931381,624.095520 
	C235.238617,633.071045 242.288116,645.292969 246.171326,660.545166 
M398.645874,485.074005 
	C394.836945,490.732117 391.163300,496.487457 387.184784,502.023712 
	C382.246460,508.895569 376.435425,522.290710 375.305420,528.837036 
	C390.691223,513.192993 404.041473,493.931763 408.566437,468.347321 
	C404.927948,474.489319 401.977173,479.470398 398.645874,485.074005 
M466.451660,318.931580 
	C468.211151,317.691254 469.858276,316.233307 471.753113,315.255249 
	C475.883728,313.123047 480.300934,311.512054 484.311218,309.188049 
	C491.934021,304.770569 492.872192,295.421234 486.337921,290.230865 
	C476.876129,305.092773 465.014618,318.068390 453.268921,332.102570 
	C456.624084,331.550385 458.471741,330.114410 459.931030,328.002991 
	C461.913544,325.134369 463.932892,322.291168 466.451660,318.931580 
M262.031036,646.959473 
	C262.025208,643.294312 261.667175,639.689758 260.808350,636.099365 
	C257.027252,620.292664 252.706848,604.605896 250.299789,588.487610 
	C250.025635,586.651855 249.900894,584.198730 246.021561,582.512756 
	C248.492325,606.921753 255.981354,629.081726 262.022552,651.569336 
	C262.022552,650.298279 262.022552,649.027222 262.031036,646.959473 
M376.235077,416.294342 
	C387.024689,407.941742 393.858215,396.792603 399.601410,383.621552 
	C391.458801,391.044983 384.082031,397.757111 376.723236,404.488831 
	C374.986877,406.077179 373.129944,407.857666 372.754944,410.121368 
	C372.340820,412.621185 370.757477,416.273102 376.235077,416.294342 
M181.228729,466.664398 
	C186.739136,460.701630 192.516754,454.985657 195.147202,446.918823 
	C196.302780,443.375000 194.793961,441.668976 192.092285,440.102570 
	C188.839813,438.216797 187.322037,440.619598 186.248810,442.753632 
	C181.830658,451.538849 179.429749,461.021362 176.291504,471.223022 
	C178.317810,469.368652 179.531479,468.257935 181.228729,466.664398 
M209.606339,393.708099 
	C206.974258,394.164215 206.041626,396.430115 205.769821,398.412994 
	C204.884964,404.868469 206.817444,410.598297 211.460342,416.600555 
	C211.683685,408.805817 216.574829,411.863708 219.767059,411.738434 
	C220.972565,407.228577 219.506577,399.979034 216.513245,398.903107 
	C213.585526,397.850800 212.159454,395.691864 209.606339,393.708099 
M317.878723,411.129395 
	C325.587280,409.719086 333.295837,408.308777 341.852905,406.743256 
	C338.232666,402.777985 334.981812,400.699768 330.682617,402.031891 
	C323.193512,404.352478 316.525665,408.443024 309.786896,412.465424 
	C312.213226,412.090027 314.639587,411.714661 317.878723,411.129395 
M212.086304,435.123138 
	C211.156418,431.397064 208.620499,427.502472 214.172318,424.585022 
	C211.390793,423.310547 210.171341,421.244019 207.567184,421.051666 
	C206.073441,423.840363 202.725784,424.169891 200.493546,426.178925 
	C196.212875,430.031586 195.886200,430.624268 197.939148,433.339844 
	C199.901016,428.427063 202.363281,430.424896 205.159180,432.520996 
	C207.141068,434.006866 208.194107,437.835236 212.086304,435.123138 
M160.714752,393.690857 
	C159.691925,392.519012 158.385849,391.665039 156.885925,391.528259 
	C148.322327,390.747559 140.529251,387.925446 133.409943,383.068573 
	C142.175369,391.353668 153.054214,395.940033 164.658051,402.150146 
	C163.033020,398.503632 162.092102,396.392242 160.714752,393.690857 
M242.369263,154.709229 
	C241.974609,154.232086 241.579971,153.754944 240.445984,152.383911 
	C241.769455,162.988861 244.241837,171.926437 249.832748,179.766403 
	C249.616852,170.909683 247.454910,162.672821 242.369263,154.709229 
M476.955170,275.445221 
	C478.577789,275.974335 479.893585,277.707825 482.010040,276.784088 
	C481.994385,273.445679 480.726868,271.177948 477.720276,269.518066 
	C472.882660,266.847290 471.940826,262.668518 474.543182,257.702057 
	C475.195496,256.457153 476.622131,255.428421 475.560028,252.919281 
	C474.787262,255.939331 472.601776,256.789734 471.055756,257.400085 
	C470.625275,264.292114 469.797394,270.914856 476.955170,275.445221 
M388.971161,563.406250 
	C387.915985,565.417725 386.860809,567.429199 385.805603,569.440735 
	C392.392883,560.767151 399.556396,552.621338 406.604553,544.337708 
	C401.338593,544.711731 398.155396,547.474854 395.882904,551.600220 
	C393.798981,555.383301 391.514740,559.056030 388.971161,563.406250 
M151.975220,447.521667 
	C157.297638,449.886841 161.714905,454.244751 168.110886,455.369873 
	C165.656860,448.660248 157.275162,444.409607 146.138565,443.895752 
	C148.068298,445.093262 149.718597,446.117371 151.975220,447.521667 
M216.417740,390.998779 
	C218.058197,392.778625 219.225357,395.068848 222.059372,396.196503 
	C224.326401,392.462402 222.599808,388.857819 219.870560,387.802643 
	C214.485275,385.720642 213.199158,382.234589 213.632370,377.208588 
	C213.656448,376.929352 213.105881,376.600616 212.662796,376.122162 
	C211.693237,377.682159 210.862640,379.018555 209.999298,380.407654 
	C212.857544,383.450012 213.901474,387.238068 216.417740,390.998779 
M368.765869,555.499146 
	C369.999176,549.655640 371.232483,543.812134 372.465790,537.968689 
	C367.348419,550.349121 365.622681,563.419250 364.209106,576.554810 
	C366.911835,570.090088 367.599670,563.186829 368.765869,555.499146 
M337.636841,47.464523 
	C337.497650,45.208973 338.135834,42.824036 336.074005,40.095352 
	C333.594025,49.625988 333.290222,58.635303 334.843048,67.808395 
	C335.764709,61.312084 336.686401,54.815777 337.636841,47.464523 
M354.438934,601.932251 
	C357.753571,598.620544 361.246002,595.422974 361.751465,590.234985 
	C354.850006,602.785461 342.947479,610.836487 334.107880,621.635803 
	C341.645782,616.188843 347.127991,608.622498 354.438934,601.932251 
M247.401581,191.038223 
	C243.889404,191.144394 245.787735,193.211960 246.418030,194.306946 
	C249.580383,199.800842 252.659729,205.332642 255.223679,211.149414 
	C254.036118,205.661224 252.731323,200.243057 251.298035,194.859085 
	C250.846878,193.164322 250.512695,191.156891 247.401581,191.038223 
M204.471619,367.669464 
	C200.568848,371.716003 201.351227,374.250946 207.487091,376.544800 
	C207.386139,373.346863 209.077148,369.916931 204.471619,367.669464 
M192.576752,407.366913 
	C192.500168,406.288391 193.060043,405.069366 192.065994,404.329102 
	C188.356354,404.969391 185.903046,406.963135 184.604309,410.604156 
	C187.695969,411.060638 190.529724,411.121643 192.576752,407.366913 
M206.680069,389.460541 
	C209.568008,389.867554 211.018219,389.030243 209.343597,386.031586 
	C208.171066,383.932007 206.865738,381.834045 203.595978,380.712769 
	C204.743164,383.819275 203.554611,386.901123 206.680069,389.460541 
M88.433830,149.915665 
	C90.442360,153.191437 93.719109,150.362610 97.007088,152.672806 
	C95.254997,148.805573 94.022507,146.378311 90.670937,146.262848 
	C88.652420,146.193329 88.308685,147.593628 88.433830,149.915665 
M167.290939,118.377823 
	C168.015289,118.440155 168.827850,119.000175 169.547226,117.761917 
	C164.277634,116.303047 159.771759,112.972794 153.674026,112.077713 
	C157.624481,116.087158 162.235245,116.921974 167.290939,118.377823 
M195.339737,377.401123 
	C195.173096,380.522888 195.341782,383.484680 199.088837,386.188660 
	C199.469406,381.880951 198.712402,379.143890 197.338242,376.585846 
	C196.879608,375.732025 196.012192,375.810394 195.339737,377.401123 
M155.089294,348.666107 
	C154.486954,347.478485 155.149429,345.777557 153.239792,344.455811 
	C153.764145,350.375427 154.194046,355.724609 156.412659,361.751373 
	C157.149857,356.824463 155.652466,353.182922 155.089294,348.666107 
M485.012024,266.352478 
	C488.020325,263.849121 486.344452,261.779480 484.569672,259.552917 
	C482.455841,260.015991 481.082092,261.645386 478.883881,261.976379 
	C482.019135,261.890472 483.349121,263.908905 485.012024,266.352478 
M491.329834,274.384094 
	C490.271149,274.822174 489.260773,275.289001 489.765442,276.797180 
	C491.405243,276.600647 492.125275,274.719879 494.190704,275.103790 
	C494.918579,275.930786 495.846039,276.984467 496.761261,278.024292 
	C498.192719,277.261993 499.391235,276.544342 498.662292,274.935303 
	C498.154602,273.814667 497.044861,273.282043 495.807678,273.439392 
	C494.519226,273.603241 493.254120,273.950775 491.329834,274.384094 
M360.104584,268.480133 
	C362.760712,268.552277 365.310547,269.970978 368.053345,269.149017 
	C363.523438,268.074341 359.248932,265.757538 353.577545,265.707703 
	C355.704895,268.053040 357.654083,267.837524 360.104584,268.480133 
M500.350647,260.894836 
	C499.903046,260.546753 498.863220,259.802307 498.993378,260.613556 
	C499.440430,263.399689 498.637482,266.439484 500.308441,269.367157 
	C503.967804,266.550629 501.863373,263.941742 500.350647,260.894836 
M494.042175,282.583069 
	C492.763519,281.406311 491.453522,280.699799 489.808472,282.137695 
	C490.898529,284.219604 491.969482,285.978638 494.029572,286.914001 
	C495.096649,285.654388 494.772125,284.397278 494.042175,282.583069 
M224.877563,223.465424 
	C222.571381,222.974274 220.338882,221.728058 217.093048,222.957428 
	C221.654419,224.114822 225.513824,225.094101 229.373215,226.073364 
	C229.435898,225.870087 229.498596,225.666824 229.561279,225.463547 
	C228.226852,224.877945 226.892410,224.292343 224.877563,223.465424 
M382.543640,135.212845 
	C381.523560,133.551239 379.962067,133.232483 378.132050,133.362045 
	C381.131653,135.015594 381.722168,138.337112 383.802643,140.659088 
	C383.465424,139.059143 383.128174,137.459213 382.543640,135.212845 
M188.695786,382.433594 
	C188.492203,385.248749 190.639313,386.650208 192.423492,388.301117 
	C191.126373,386.300232 192.453506,382.986298 188.695786,382.433594 
z"/>
</svg>